<svg width="296" height="162" viewBox="0 0 296 162" fill="none" xmlns="http://www.w3.org/2000/svg">
<g clip-path="url(#clip0_801_3903)">
<g filter="url(#filter0_d_801_3903)">
<rect width="296" height="162" rx="18" fill="#44B5DC"/>
</g>
<ellipse cx="50.4108" cy="119.411" rx="48.5" ry="143" transform="rotate(45 50.4108 119.411)" fill="#56C2E7"/>
<ellipse cx="166.411" cy="119.411" rx="48.5" ry="143" transform="rotate(45 166.411 119.411)" fill="#56C2E7"/>
<path d="M259.068 208.593C257.412 207.289 256.407 205.469 255.565 203.568C254.614 201.341 253.799 199.059 253.066 196.75C251.681 192.323 250.676 187.76 250.078 183.17C248.856 173.555 249.834 163.831 248.666 154.189C248.421 154.271 248.15 154.325 247.905 154.406C250.947 161.251 258.063 165.352 263.984 169.426C263.93 169.236 263.876 169.046 263.849 168.856C263.034 170.024 262.219 171.192 261.404 172.36C261.214 172.631 261.459 172.984 261.757 172.984C262.817 172.984 263.74 172.849 264.745 172.496C264.582 172.441 264.446 172.36 264.283 172.305C265.288 173.854 266.293 175.402 267.298 176.95C267.325 176.787 267.352 176.624 267.352 176.461C266.864 176.923 266.456 177.439 266.049 178.009C265.913 178.199 266.049 178.58 266.293 178.607C268.52 178.933 269.308 181.051 269.878 182.953C270.041 183.441 270.829 183.251 270.666 182.735C269.987 180.59 269.009 178.172 266.51 177.819C266.592 178.009 266.673 178.227 266.755 178.417C267.108 177.873 267.461 177.493 267.923 177.059C268.059 176.95 268.086 176.706 267.977 176.57C266.972 175.022 265.967 173.473 264.962 171.925C264.881 171.789 264.691 171.681 264.501 171.735C263.577 172.034 262.681 172.197 261.73 172.17C261.839 172.387 261.975 172.577 262.083 172.794C262.898 171.626 263.713 170.458 264.528 169.291C264.664 169.1 264.555 168.856 264.392 168.72C258.579 164.728 251.599 160.735 248.611 153.999C248.448 153.646 247.797 153.809 247.851 154.216C249.046 164.211 247.987 174.315 249.399 184.283C250.078 189.091 251.192 193.817 252.74 198.407C253.989 202.128 255.293 206.664 258.471 209.19C258.905 209.489 259.476 208.918 259.068 208.593Z" fill="#E8E8E8"/>
<path d="M248.068 155.004C250.268 161.088 252.115 167.498 255.076 173.283C256.542 176.135 258.145 178.933 259.53 181.839C261.024 184.99 262.355 188.195 263.713 191.372C263.903 191.861 264.609 191.427 264.419 190.965C263.143 187.923 261.839 184.881 260.454 181.893C259.096 178.96 257.52 176.162 255.999 173.31C252.957 167.498 251.083 160.979 248.829 154.814C248.666 154.298 247.878 154.515 248.068 155.004Z" fill="#E8E8E8"/>
<path d="M22.4692 84.6297C22.4692 89.057 22.4692 93.5114 22.4692 97.9386C22.4692 98.4547 23.2841 98.4547 23.2841 97.9386C23.2841 93.5114 23.2841 89.057 23.2841 84.6297C23.2841 84.1137 22.4692 84.1137 22.4692 84.6297Z" fill="#E8E8E8"/>
<path d="M8.80721 98.5905C19.7259 98.5905 30.6446 98.5905 41.5634 98.5905C42.0794 98.5905 42.0794 97.7756 41.5634 97.7756C30.6446 97.7756 19.7259 97.7756 8.80721 97.7756C8.29115 97.7756 8.29115 98.5905 8.80721 98.5905Z" fill="#E8E8E8"/>
<path d="M31.6768 98.9708C31.6768 102.393 31.6768 105.788 31.6768 109.21C31.6768 109.727 32.4916 109.727 32.4916 109.21C32.4916 105.788 32.4916 102.393 32.4916 98.9708C32.4916 98.4275 31.6768 98.4275 31.6768 98.9708Z" fill="#E8E8E8"/>
<path d="M22.632 110.623C31.3235 110.623 40.0422 110.623 48.7337 110.623C49.2498 110.623 49.2498 109.808 48.7337 109.808C40.0422 109.808 31.3235 109.808 22.632 109.808C22.0888 109.808 22.0888 110.623 22.632 110.623Z" fill="#E8E8E8"/>
<path d="M241.821 75.0962C241.821 76.1826 241.821 77.2419 241.821 78.3283C241.821 78.8444 242.636 78.8444 242.636 78.3283C242.636 77.2419 242.636 76.1826 242.636 75.0962C242.636 74.5801 241.821 74.5801 241.821 75.0962Z" fill="#E8E8E8"/>
<path d="M242.473 75.7481C261.16 75.7481 279.846 75.7481 298.533 75.7481C299.049 75.7481 299.049 74.9332 298.533 74.9332C279.846 74.9332 261.16 74.9332 242.473 74.9332C241.957 74.9332 241.957 75.7481 242.473 75.7481Z" fill="#E8E8E8"/>
<path d="M242.962 78.7357C261.486 78.7357 280.01 78.7357 298.506 78.7357C299.022 78.7357 299.022 77.9209 298.506 77.9209C279.982 77.9209 261.459 77.9209 242.962 77.9209C242.446 77.9209 242.446 78.7357 242.962 78.7357Z" fill="#E8E8E8"/>
<path d="M246.303 75.1234C246.303 67.5454 246.303 59.9675 246.303 52.3896C246.303 51.8735 245.488 51.8735 245.488 52.3896C245.488 59.9675 245.488 67.5454 245.488 75.1234C245.488 75.6666 246.303 75.6666 246.303 75.1234Z" fill="#E8E8E8"/>
<path d="M246.303 52.5255C248.612 51.602 251.056 51.7378 253.202 53.0144C253.664 53.286 254.071 52.5798 253.609 52.3082C251.301 50.9501 248.557 50.7329 246.086 51.7378C245.597 51.9279 245.814 52.7156 246.303 52.5255Z" fill="#E8E8E8"/>
<path d="M253.066 52.8242C253.066 60.1033 253.066 67.4096 253.066 74.6888C253.066 75.2048 253.881 75.2048 253.881 74.6888C253.881 67.4096 253.881 60.1033 253.881 52.8242C253.881 52.3081 253.066 52.3081 253.066 52.8242Z" fill="#E8E8E8"/>
<path d="M253.989 58.9082C255.646 58.2291 257.384 58.3378 258.933 59.2884C259.394 59.56 259.802 58.8538 259.34 58.5822C257.629 57.5501 255.619 57.36 253.772 58.1205C253.283 58.3106 253.5 59.0983 253.989 58.9082Z" fill="#E8E8E8"/>
<path d="M258.77 59.2613C258.77 64.3676 258.77 69.4467 258.77 74.5529C258.77 75.069 259.585 75.069 259.585 74.5529C259.585 69.4467 259.585 64.3676 259.585 59.2613C259.585 58.7453 258.77 58.7453 258.77 59.2613Z" fill="#E8E8E8"/>
<path d="M246.412 58.7724C248.72 58.2563 251.002 58.4193 253.229 59.2069C253.718 59.3699 253.935 58.5822 253.446 58.4193C251.083 57.5773 248.639 57.4686 246.194 57.9847C245.705 58.0933 245.923 58.881 246.412 58.7724Z" fill="#E8E8E8"/>
<path d="M253.419 68.1973C255.157 67.7355 256.896 67.6812 258.661 68.0614C259.177 68.1701 259.395 67.3824 258.878 67.2738C256.977 66.8664 255.103 66.8935 253.202 67.4096C252.713 67.5454 252.903 68.3331 253.419 68.1973Z" fill="#E8E8E8"/>
<path d="M269.037 74.8517C269.037 73.3307 269.037 71.8097 269.037 70.2887C269.037 69.7726 268.222 69.7726 268.222 70.2887C268.222 71.8097 268.222 73.3307 268.222 74.8517C268.222 75.3678 269.037 75.3678 269.037 74.8517Z" fill="#E8E8E8"/>
<path d="M268.629 70.5331C277.456 70.5331 286.257 70.5331 295.084 70.5331C295.6 70.5331 295.6 69.7183 295.084 69.7183C286.257 69.7183 277.456 69.7183 268.629 69.7183C268.086 69.7183 268.086 70.5331 268.629 70.5331Z" fill="#E8E8E8"/>
<path d="M295.356 70.9677C295.872 70.9677 295.872 70.1528 295.356 70.1528C294.812 70.1528 294.812 70.9677 295.356 70.9677Z" fill="#E8E8E8"/>
<path d="M294.948 70.5603C294.948 71.9455 294.948 73.3307 294.948 74.7159C294.948 75.232 295.763 75.232 295.763 74.7159C295.763 73.3307 295.763 71.9455 295.763 70.5603C295.763 70.0442 294.948 70.0442 294.948 70.5603Z" fill="#E8E8E8"/>
<path d="M274.17 69.9899C274.17 68.5503 274.17 67.138 274.17 65.6984C274.17 65.1824 273.355 65.1824 273.355 65.6984C273.355 67.138 273.355 68.5503 273.355 69.9899C273.355 70.5059 274.17 70.5059 274.17 69.9899Z" fill="#E8E8E8"/>
<path d="M273.763 65.9701C282.427 65.9701 291.091 65.9701 299.783 65.9701C300.299 65.9701 300.299 65.1553 299.783 65.1553C291.118 65.1553 282.454 65.1553 273.763 65.1553C273.246 65.1553 273.246 65.9701 273.763 65.9701Z" fill="#E8E8E8"/>
<path d="M294.785 70.669C296.361 70.669 297.936 70.669 299.511 70.669C300.027 70.669 300.027 69.8541 299.511 69.8541C297.936 69.8541 296.361 69.8541 294.785 69.8541C294.242 69.8541 294.242 70.669 294.785 70.669Z" fill="#E8E8E8"/>
<path d="M279.955 65.7529C280.308 67.1381 280.39 68.5505 280.2 69.99C280.145 70.5061 280.96 70.5061 281.014 69.99C281.205 68.4961 281.096 67.0023 280.743 65.5356C280.607 65.0467 279.819 65.264 279.955 65.7529Z" fill="#E8E8E8"/>
<path d="M286.094 70.4788C286.284 71.8368 286.175 73.1677 285.849 74.4715C285.713 74.9875 286.501 75.2048 286.637 74.6887C287.017 73.2221 287.099 71.7554 286.881 70.2615C286.827 69.7455 286.039 69.9627 286.094 70.4788Z" fill="#E8E8E8"/>
<path d="M280.77 103.534C280.77 105.679 280.77 107.798 280.77 109.944C280.77 110.46 281.585 110.46 281.585 109.944C281.585 107.798 281.585 105.679 281.585 103.534C281.585 102.99 280.77 102.99 280.77 103.534Z" fill="#E8E8E8"/>
<path d="M274.469 110.052C279.901 110.052 285.333 110.052 290.765 110.052C291.281 110.052 291.281 109.237 290.765 109.237C285.333 109.237 279.901 109.237 274.469 109.237C273.953 109.237 273.953 110.052 274.469 110.052Z" fill="#E8E8E8"/>
<path d="M265.207 18.6827C265.207 23.5717 265.207 28.4878 265.207 33.3768C265.207 33.8929 266.022 33.8929 266.022 33.3768C266.022 28.4878 266.022 23.5717 266.022 18.6827C266.022 18.1666 265.207 18.1666 265.207 18.6827Z" fill="#E8E8E8"/>
<path d="M266.239 18.6556C272.432 18.6556 278.597 18.6556 284.79 18.6556C285.306 18.6556 285.306 17.8408 284.79 17.8408C278.597 17.8408 272.432 17.8408 266.239 17.8408C265.723 17.8408 265.723 18.6556 266.239 18.6556Z" fill="#E8E8E8"/>
<path d="M284.817 18.547C284.817 23.273 284.817 27.999 284.817 32.6978C284.817 33.2139 285.632 33.2139 285.632 32.6978C285.632 27.9718 285.632 23.2458 285.632 18.547C285.632 18.0309 284.817 18.0309 284.817 18.547Z" fill="#E8E8E8"/>
<path d="M265.505 33.8386C272.078 33.8386 278.651 33.8386 285.224 33.8386C285.74 33.8386 285.74 33.0238 285.224 33.0238C278.651 33.0238 272.078 33.0238 265.505 33.0238C264.989 33.0238 264.989 33.8386 265.505 33.8386Z" fill="#E8E8E8"/>
<path d="M267.027 20.3668C267.027 24.0878 267.027 27.7817 267.027 31.5028C267.027 32.0188 267.841 32.0188 267.841 31.5028C267.841 27.7817 267.841 24.0878 267.841 20.3668C267.841 19.8507 267.027 19.8507 267.027 20.3668Z" fill="#E8E8E8"/>
<path d="M267.624 20.6928C272.703 20.6928 277.81 20.6928 282.889 20.6928C283.405 20.6928 283.405 19.8779 282.889 19.8779C277.81 19.8779 272.703 19.8779 267.624 19.8779C267.108 19.8779 267.108 20.6928 267.624 20.6928Z" fill="#E8E8E8"/>
<path d="M282.59 20.3668C282.59 23.8162 282.59 27.2385 282.59 30.688C282.59 31.204 283.405 31.204 283.405 30.688C283.405 27.2385 283.405 23.8162 283.405 20.3668C283.405 19.8507 282.59 19.8507 282.59 20.3668Z" fill="#E8E8E8"/>
<path d="M267.624 31.9102C272.676 31.9102 277.728 31.9102 282.807 31.9102C283.323 31.9102 283.323 31.0953 282.807 31.0953C277.755 31.0953 272.703 31.0953 267.624 31.0953C267.108 31.0953 267.108 31.9102 267.624 31.9102Z" fill="#E8E8E8"/>
<path d="M277.239 27.0212C275.093 25.3916 278.298 21.9965 279.792 24.0335C281.178 25.8805 278.923 28.1077 276.995 27.0756C276.533 26.8311 276.126 27.5373 276.587 27.7818C277.837 28.4608 279.494 28.2707 280.39 27.1027C281.313 25.9348 281.205 24.0879 280.037 23.1101C278.815 22.1051 277.076 22.7841 276.234 23.9249C275.338 25.1743 275.61 26.804 276.832 27.7274C277.266 28.0262 277.647 27.32 277.239 27.0212Z" fill="#E8E8E8"/>
<path d="M274.659 31.041C274.55 28.8953 277.185 28.0805 278.842 28.0805C280.879 28.0805 281.531 29.9003 282.373 31.4485C282.617 31.9102 283.323 31.5028 283.079 31.041C282.508 30.0089 281.965 28.6509 281.015 27.8904C280.145 27.2113 279.059 27.2385 278.027 27.3472C276.126 27.5644 273.708 28.7324 273.844 31.041C273.871 31.5571 274.686 31.5571 274.659 31.041Z" fill="#E8E8E8"/>
<path d="M267.978 29.0854C268.575 27.9718 270.775 28.4064 271.59 28.8409C272.432 29.3027 272.921 30.0632 273.138 30.9867C273.247 31.5027 274.034 31.2854 273.926 30.7694C273.6 29.357 272.622 28.2434 271.21 27.7817C270.015 27.4014 267.978 27.3742 267.298 28.6508C267.027 29.1397 267.733 29.5471 267.978 29.0854Z" fill="#E8E8E8"/>
<path d="M269.553 27.0757C268.657 27.0485 268.874 25.7176 269.254 25.2559C269.743 24.6583 270.721 24.5769 271.291 25.1472C271.753 25.5818 271.889 26.3966 271.508 26.9127C271.237 27.293 270.829 27.3744 270.395 27.3744C270.232 27.3744 269.553 27.4016 269.444 27.2658C269.145 26.8312 268.439 27.2386 268.738 27.6732C269.064 28.1621 269.743 28.1893 270.286 28.1893C270.938 28.2164 271.563 28.0535 272.025 27.5646C272.894 26.6139 272.595 25.0114 271.563 24.3052C270.449 23.5719 268.901 23.9793 268.331 25.1744C267.842 26.2337 268.195 27.8362 269.553 27.8633C270.096 27.9177 270.096 27.1028 269.553 27.0757Z" fill="#E8E8E8"/>
<path d="M103.327 90.8767C104.604 91.9088 106.179 91.4742 107.374 90.4693C109.058 89.0841 109.9 86.7211 110.226 84.6297C111.068 79.3061 108.922 74.2542 108.08 69.0936C106.559 59.5058 110.742 49.2389 118.51 43.4808C122.286 40.656 128.506 37.6412 127.039 31.8559C126.903 31.3398 126.115 31.5571 126.251 32.0732C127.636 37.5868 121.226 40.3844 117.723 43.0462C114.572 45.4635 112.019 48.587 110.199 52.0908C108.406 55.4859 107.32 59.2613 107.021 63.091C106.668 67.7355 107.89 72.0541 108.895 76.5357C109.493 79.2518 109.873 82.1037 109.357 84.8741C109.113 86.1507 108.678 87.4001 107.999 88.5137C107.238 89.7088 105.419 91.5557 103.898 90.3335C103.517 89.9804 102.92 90.5508 103.327 90.8767Z" fill="#E8E8E8"/>
<path d="M126.74 31.5299C123.671 31.6657 120.982 29.2756 121.145 26.1249C121.308 22.8384 125.192 19.7964 128.478 20.6655C131.412 21.4532 133.666 24.6854 132.933 27.7002C132.2 30.7151 128.804 31.367 126.197 31.8016C125.681 31.883 125.898 32.6707 126.414 32.5892C129.782 32.046 133.693 30.8509 133.911 26.7768C134.074 23.4631 131.113 19.8779 127.718 19.7421C124.133 19.5791 120.52 22.5125 120.33 26.1521C120.167 29.7373 123.236 32.5077 126.74 32.3719C127.256 32.3176 127.256 31.5028 126.74 31.5299Z" fill="#E8E8E8"/>
<path d="M122.72 29.4115C124.024 26.125 130.977 25.5818 131.792 29.493C131.901 30.009 132.688 29.7918 132.58 29.2757C131.575 24.4954 123.508 25.2015 121.932 29.1942C121.742 29.6831 122.53 29.8732 122.72 29.4115Z" fill="#E8E8E8"/>
<path d="M126.795 25.7448C126.224 25.3374 126.007 24.5497 126.387 23.9522C126.822 23.2188 127.745 23.1373 128.451 23.5176C128.995 23.8164 129.103 24.4954 128.777 25.0114C128.37 25.6362 127.501 25.7176 126.822 25.5547C126.306 25.446 126.088 26.2337 126.604 26.3423C127.691 26.5868 128.995 26.3423 129.538 25.2831C130.027 24.3324 129.674 23.1917 128.696 22.7299C127.609 22.241 126.306 22.4583 125.681 23.5176C125.056 24.5226 125.464 25.772 126.387 26.4238C126.822 26.7769 127.229 26.0707 126.795 25.7448Z" fill="#E8E8E8"/>
<path d="M138.311 17.3791C141.163 9.82838 149.365 5.97152 156.998 5.45546C162.049 5.10237 167.101 5.89004 172.045 6.84067C176.716 7.76415 181.578 9.23084 186.359 9.06787C190.297 8.93207 194.344 7.30241 196.191 3.63568C196.435 3.17394 195.729 2.76652 195.485 3.22826C193.339 7.46537 188.396 8.55181 184.023 8.19872C178.916 7.79131 173.892 6.27029 168.867 5.4283C160.719 4.07025 152.027 3.88013 144.775 8.47033C141.489 10.5617 138.881 13.4951 137.496 17.1618C137.333 17.6507 138.121 17.868 138.311 17.3791Z" fill="#E8E8E8"/>
<path d="M199.477 3.17396C206.648 3.17396 213.846 3.17396 221.016 3.17396C221.532 3.17396 221.532 2.35913 221.016 2.35913C213.846 2.35913 206.648 2.35913 199.477 2.35913C198.934 2.35913 198.934 3.17396 199.477 3.17396Z" fill="#E8E8E8"/>
<path d="M199.178 2.3047C197.902 1.0553 199.287 -1.06326 200.292 -2.0139C201.514 -3.20898 203.198 -3.67071 204.828 -3.01885C204.964 -2.96453 205.235 -3.04601 205.29 -3.20898C206.267 -5.4905 208.576 -7.14732 211.102 -7.03868C213.737 -6.93003 215.964 -4.94728 216.616 -2.44847C216.67 -2.20402 216.996 -2.06822 217.213 -2.20402C218.408 -2.93737 219.631 -2.06822 220.12 -0.954617C220.554 0.0775008 220.445 1.24542 220.337 2.35902C220.282 2.87508 221.097 2.87508 221.152 2.35902C221.315 0.729364 221.423 -1.19907 220.12 -2.44847C219.196 -3.31762 217.919 -3.58923 216.833 -2.91021C217.023 -2.82872 217.24 -2.74724 217.431 -2.66576C216.697 -5.38186 214.361 -7.55474 211.509 -7.82635C208.576 -8.12512 205.751 -6.30533 204.611 -3.61639C204.774 -3.67071 204.909 -3.7522 205.072 -3.80652C202.899 -4.67567 200.618 -3.7522 199.206 -1.95957C198.146 -0.628685 197.223 1.51703 198.662 2.90224C198.988 3.25534 199.559 2.68496 199.178 2.3047Z" fill="#E8E8E8"/>
<path d="M214.633 6.29737C217.974 5.91712 219.93 9.42089 220.446 12.2456C220.989 15.1519 220.473 18.0581 220.174 20.9643C219.712 25.3372 220.011 30.6065 224.167 33.1596C224.601 33.4312 225.036 32.725 224.574 32.4534C218.897 28.9768 221.26 21.2359 221.478 15.9124C221.641 11.8654 220.038 4.885 214.633 5.48254C214.117 5.53687 214.117 6.3517 214.633 6.29737Z" fill="#E8E8E8"/>
<path d="M228.675 28.5695C226.231 34.735 223.813 40.9006 221.369 47.0389C221.179 47.5278 221.967 47.7451 222.157 47.2562C224.601 41.0907 227.018 34.9251 229.463 28.7868C229.653 28.2979 228.865 28.1077 228.675 28.5695Z" fill="#E8E8E8"/>
<path d="M229.056 29.0855C233.293 28.8682 237.503 28.9768 241.713 29.4657C241.577 29.3028 241.441 29.1126 241.332 28.9497C239.322 35.3868 237.693 41.9055 236.389 48.5056C236.28 49.0216 237.068 49.2389 237.177 48.7229C238.48 42.1228 240.137 35.6041 242.12 29.167C242.202 28.8954 241.984 28.6781 241.74 28.6509C237.53 28.162 233.32 28.0534 229.083 28.2707C228.54 28.2978 228.54 29.1126 229.056 29.0855Z" fill="#E8E8E8"/>
<path d="M221.559 47.8265C224.058 47.9352 226.529 48.071 229.028 48.2339C231.446 48.3697 234.026 48.3154 236.307 49.2389C236.796 49.429 237.014 48.6414 236.525 48.4512C234.352 47.5549 231.88 47.6092 229.571 47.4734C226.91 47.3105 224.248 47.1747 221.559 47.0389C221.043 46.9845 221.043 47.7994 221.559 47.8265Z" fill="#E8E8E8"/>
<path d="M229.436 31.8017C232.043 31.856 234.651 32.0462 237.231 32.3992C237.747 32.4807 237.964 31.6931 237.448 31.6116C234.786 31.2313 232.125 31.014 229.436 30.9597C228.893 30.9597 228.893 31.7745 229.436 31.8017Z" fill="#E8E8E8"/>
<path d="M228.648 33.6485C230.115 33.5942 231.581 33.6214 233.048 33.7572C233.564 33.8115 233.564 32.9967 233.048 32.9423C231.581 32.8065 230.115 32.7522 228.648 32.8337C228.132 32.8609 228.132 33.6757 228.648 33.6485Z" fill="#E8E8E8"/>
<path d="M226.856 37.3153C229.979 37.1252 232.94 36.8536 236.009 37.6141C236.525 37.7499 236.742 36.9622 236.226 36.8264C233.076 36.0659 230.061 36.3103 226.856 36.5005C226.312 36.5276 226.312 37.3425 226.856 37.3153Z" fill="#E8E8E8"/>
<path d="M226.991 39.7054C228.784 39.5696 230.577 39.5696 232.369 39.7326C232.885 39.7869 232.885 38.972 232.369 38.9177C230.577 38.7548 228.784 38.7548 226.991 38.8906C226.475 38.9449 226.448 39.7597 226.991 39.7054Z" fill="#E8E8E8"/>
<path d="M225.579 42.856C228.023 42.6931 230.414 42.7745 232.831 43.1005C233.347 43.182 233.347 42.3671 232.831 42.2856C230.414 41.9597 227.996 41.8782 225.579 42.0412C225.063 42.0684 225.063 42.8832 225.579 42.856Z" fill="#E8E8E8"/>
<path d="M90.4259 6.40601C91.5124 7.8727 93.0877 8.47024 94.6902 9.20359C96.5915 10.0727 98.3298 11.2407 99.7422 12.7888C102.947 16.2383 104.006 20.8828 104.088 25.473C104.278 34.083 101.372 43.1005 105.283 51.2488C105.5 51.7105 106.206 51.3031 105.989 50.8414C101.888 42.2585 105.527 32.6435 104.821 23.6261C104.522 19.7149 103.409 15.8852 100.883 12.8432C99.6878 11.4036 98.2211 10.1542 96.5915 9.23075C94.7717 8.19863 92.4087 7.73689 91.1321 5.99859C90.8334 5.59118 90.1272 5.99859 90.4259 6.40601Z" fill="#E8E8E8"/>
<path d="M81.1369 -5.0831C80.4308 -5.97941 80.4851 -6.60411 81.2999 -6.95721C81.653 -7.14733 82.0061 -7.28314 82.4135 -7.36462C82.9296 -7.47326 83.4999 -7.50043 84.0432 -7.47326C85.6728 -7.39178 87.3296 -6.95721 87.2482 -4.97445C87.1667 -2.63861 86.7321 -0.329926 86.1617 1.92444C85.5642 4.23312 84.8308 6.48748 84.0432 8.74184C83.8802 9.23074 83.7444 9.80112 83.4999 10.2629C83.011 11.1048 82.2505 11.0777 81.4357 11.0777C80.4308 11.0777 79.1542 11.2135 78.1764 10.9419C77.0899 10.6431 76.8455 9.55667 77.9048 8.85049C78.3937 8.52456 79.0727 8.47023 79.6431 8.47023C80.3764 8.47023 81.0283 8.6332 81.653 8.1443C82.8481 7.22083 83.0382 4.72202 83.3098 3.39113C83.7172 1.4627 84.3963 -0.900306 84.2604 -2.8559C84.1518 -4.34975 82.6851 -4.40407 81.6258 -5.02878C81.1641 -5.30039 80.7567 -4.5942 81.2184 -4.32259C82.0604 -3.83369 83.2827 -3.77937 83.4456 -2.66577C83.6357 -1.36204 83.0925 0.403421 82.8481 1.70715C82.6036 2.95655 82.332 4.20596 82.0061 5.4282C81.7616 6.35168 81.653 7.46528 80.4308 7.70973C79.9419 7.81837 79.3443 7.65541 78.8283 7.73689C77.5245 7.92702 76.248 8.85049 76.4381 10.3172C76.6825 12.1641 78.8826 11.8382 80.2406 11.8925C81.9246 11.9468 83.6086 12.1913 84.3691 10.3987C85.3197 8.17146 85.9988 5.72697 86.6506 3.41829C87.3296 1.02812 87.8457 -1.44353 88.0358 -3.91518C88.1988 -5.84361 88.2803 -7.39178 86.1346 -7.90784C84.2604 -8.36958 81.6802 -8.58687 80.2135 -7.06585C79.2357 -6.06089 79.4801 -4.07814 81.1641 -4.21395C81.653 -4.32259 81.653 -5.13742 81.1369 -5.0831Z" fill="#E8E8E8"/>
<path d="M77.8502 -2.17691C77.823 -2.20407 77.7959 -2.23123 77.7687 -2.25839C77.66 -2.36703 77.4971 -2.3942 77.3613 -2.36703C76.5736 -2.09542 76.2748 -0.818859 76.0575 -0.112673C75.6773 1.19105 75.5958 2.52194 75.7859 3.87999C75.8403 4.39605 76.6551 4.39605 76.6008 3.87999C76.4921 2.92936 76.465 2.00588 76.6279 1.05525C76.7094 0.566352 77.5514 -1.33492 77.2526 -1.60653C77.6329 -1.22627 78.2033 -1.79665 77.8502 -2.17691Z" fill="#E8E8E8"/>
<path d="M75.1071 -5.16453C72.6083 -1.98669 71.0058 1.84301 72.0651 5.91715C72.2009 6.43321 72.9885 6.21593 72.8527 5.69987C71.8749 1.95165 73.3959 -1.66076 75.6775 -4.59415C76.0034 -5.00156 75.433 -5.57194 75.1071 -5.16453Z" fill="#E8E8E8"/>
<path d="M71.6848 -8.83124C67.5292 -3.37189 65.5736 3.527 66.2798 10.3716C66.3341 10.8876 67.1489 10.8876 67.0946 10.3716C66.4156 3.66281 68.2897 -3.04595 72.391 -8.42383C72.6898 -8.83124 71.9836 -9.23866 71.6848 -8.83124Z" fill="#E8E8E8"/>
<path d="M65.8997 18.9272C63.8083 19.9322 61.8527 21.3174 60.3045 23.0557C58.7292 24.8483 58.2403 26.7767 57.9958 29.1126C57.4526 34.4633 55.4699 40.3301 50.092 42.5844C49.6031 42.7745 49.8204 43.5622 50.3093 43.3721C54.6007 41.5795 57.0995 37.5053 58.1588 33.1052C58.7835 30.4706 58.4847 27.3471 59.8699 24.9841C61.2823 22.5668 63.8354 20.8013 66.3071 19.6062C66.796 19.4161 66.3886 18.7099 65.8997 18.9272Z" fill="#E8E8E8"/>
<path d="M38.6028 57.007C36.8102 57.0613 34.7731 56.3008 34.1213 54.4539C33.3608 52.281 34.9904 50.1625 36.7287 49.0489C40.0967 46.876 44.6326 46.034 48.5437 45.9797C50.5265 45.9525 52.7809 45.9797 54.5192 47.0389C56.7464 48.397 57.1266 50.9501 55.3883 52.8786C52.7537 55.8119 48.2178 56.1107 44.5782 56.3823C44.0622 56.4095 44.0622 57.2243 44.5782 57.1971C48.2178 56.9255 52.292 56.5996 55.2253 54.1551C57.9143 51.9279 58.1044 48.234 54.9537 46.3056C51.6944 44.3228 46.724 44.9747 43.193 45.7352C39.7979 46.4686 35.1534 47.7994 33.6324 51.3032C32.057 54.8885 35.0719 57.8762 38.6571 57.7675C39.146 57.7947 39.146 56.9799 38.6028 57.007Z" fill="#E8E8E8"/>
<path d="M38.4669 57.3328C37.7879 58.4193 37.136 59.5057 36.457 60.565C36.2397 60.9181 36.6743 61.2983 37.0274 61.1354C38.6842 60.239 40.4768 59.6687 42.1608 58.881C43.0843 58.4736 43.9806 57.9847 44.8497 57.4415C45.1485 57.2513 45.5016 57.1427 45.5831 56.7624C45.6374 56.5723 45.5288 56.3007 45.3115 56.2735C45.2843 56.2735 45.2572 56.2735 45.23 56.2464C45.0399 56.2192 44.7683 56.3007 44.7411 56.518C44.7411 56.5451 44.7411 56.5451 44.7411 56.5723C44.6324 57.0884 45.4201 57.3057 45.5288 56.7896C45.5288 56.7624 45.5288 56.7624 45.5288 56.7353C45.3658 56.8168 45.2028 56.9254 45.0399 57.0069C45.067 57.0069 45.0942 57.0069 45.1213 57.034C45.0399 56.8711 44.9312 56.7081 44.8497 56.5451C44.7683 56.8168 43.2472 57.4415 42.9213 57.6316C42.1065 58.0662 41.2645 58.4193 40.3953 58.7723C39.1188 59.2884 37.8694 59.7773 36.6743 60.4292C36.8644 60.6193 37.0545 60.8094 37.2447 60.9995C37.9237 59.9131 38.5755 58.8267 39.2546 57.7674C39.4447 57.3057 38.7385 56.8982 38.4669 57.3328Z" fill="#E8E8E8"/>
<path d="M39.3631 52.634C39.3359 52.5797 39.3359 52.4711 39.4174 52.4711C39.6347 52.4711 39.3903 52.7427 39.3631 52.7699C39.2273 52.8513 38.7656 52.96 38.7927 52.6884C38.8199 52.3624 39.4446 52.0093 39.5532 52.4982C39.5804 52.634 39.4717 52.797 39.3359 52.8242C39.2545 52.8513 39.2001 52.8513 39.1458 52.797C39.1186 52.7699 39.0643 52.7427 39.1186 52.7427C39.6347 52.7699 39.6347 51.955 39.1186 51.9279C38.5754 51.8735 38.168 52.4439 38.3038 52.96C38.4396 53.476 39.0372 53.7476 39.5261 53.6118C40.015 53.476 40.3952 53.0415 40.3952 52.5254C40.3952 52.0093 39.9878 51.5748 39.5261 51.4661C38.5211 51.2217 37.4618 52.6884 38.331 53.4217C39.0372 54.0193 40.4495 53.476 40.3681 52.4711C40.3137 51.9279 39.7162 51.4933 39.173 51.6834C38.6297 51.8735 38.4125 52.5526 38.6841 53.0415C38.9014 53.5032 39.6075 53.0958 39.3631 52.634Z" fill="#E8E8E8"/>
<path d="M45.3659 51.9008C45.3387 51.7378 45.2573 51.5205 45.4202 51.3847C45.5017 51.3033 45.6375 51.3033 45.7462 51.3033C46.0178 51.3576 45.9634 51.6563 45.7733 51.7922C45.6647 51.8736 45.556 51.8736 45.4745 51.765C45.3931 51.6563 45.4202 51.6292 45.5017 51.5749C45.556 51.5477 45.3931 51.5749 45.5289 51.5477C45.8548 51.4934 45.3116 51.8736 45.3931 51.602C45.2301 52.1181 46.0178 52.3082 46.1807 51.8193C46.3165 51.3304 45.8548 50.8415 45.3659 50.923C44.7955 51.0316 44.6597 51.7107 45.0128 52.1181C45.3387 52.4983 45.9363 52.4169 46.1807 51.9823C46.4252 51.5477 46.2622 50.9773 45.7733 50.8144C45.2844 50.6514 44.7412 50.9502 44.6325 51.4391C44.4967 51.9823 44.877 52.5255 45.4202 52.6613C46.398 52.8786 47.2128 51.5477 46.5067 50.8144C46.1536 50.4613 45.5832 50.4341 45.1486 50.6242C44.5511 50.923 44.5239 51.5477 44.6325 52.1181C44.6597 52.6341 45.4474 52.4169 45.3659 51.9008Z" fill="#E8E8E8"/>
<path d="M51.3954 50.0808C51.5041 50.0808 51.6127 50.108 51.7485 50.108V50.0808C51.7757 50.0537 51.7757 49.9993 51.8029 49.9722C51.83 49.9179 51.9115 49.8635 51.9658 49.8364C52.1016 49.7821 52.2374 49.7821 52.3189 49.9179C52.4276 50.1351 52.2374 50.5426 51.9658 50.3796C51.8029 50.271 51.7757 49.9993 52.0202 50.0537C52.0745 50.0537 52.1016 50.0808 52.1288 50.108C52.1288 50.108 52.1288 50.1623 52.1288 50.108C52.1288 50.0537 52.1288 50.1351 52.1016 50.1351C52.0202 50.1895 51.993 50.2438 51.9115 50.1895C51.7214 50.0537 51.4498 50.1623 51.3411 50.3253C51.2325 50.5426 51.314 50.7598 51.4769 50.8957C52.2646 51.466 53.3239 50.3253 52.6992 49.5648C52.1288 48.8857 50.9066 49.3203 50.9609 50.2166C50.988 50.6784 51.3411 51.0858 51.7757 51.1944C52.2103 51.3031 52.672 51.0858 52.9165 50.7055C53.4597 49.8635 52.6992 48.6956 51.6942 49.0215C51.2325 49.1845 50.8251 49.6462 50.8794 50.1623C50.9337 50.7327 51.7485 51.0315 52.0473 50.4611C52.3189 50.0265 51.6399 49.6191 51.3954 50.0808Z" fill="#E8E8E8"/>
<path d="M67.8007 26.3965C71.1415 24.5495 74.0477 22.105 76.4651 19.1445C76.791 18.7371 76.2206 18.1667 75.8947 18.5741C73.5317 21.4803 70.6798 23.8705 67.3933 25.6903C66.9316 25.9347 67.339 26.6409 67.8007 26.3965Z" fill="#E8E8E8"/>
<path d="M108.434 27.1027C107.836 30.525 107.592 33.9744 107.755 37.451C107.782 37.9671 108.597 37.9671 108.569 37.451C108.407 34.0559 108.624 30.6608 109.221 27.32C109.303 26.8039 108.515 26.5866 108.434 27.1027Z" fill="#E8E8E8"/>
<path d="M104.278 106.494C104.278 102.339 106.233 98.4004 109.574 95.9015C109.982 95.6028 109.574 94.8966 109.167 95.1954C105.582 97.8571 103.49 102.013 103.49 106.494C103.463 107.01 104.278 107.01 104.278 106.494Z" fill="#E8E8E8"/>
<path d="M248.774 111.085C253.528 119.559 249.861 128.929 240.952 152.206C236.661 163.397 228.811 183.957 217.729 213.264C206.838 217.23 188.803 222.119 166.504 220.57C153.548 219.674 142.684 216.877 134.454 213.997C133.232 211.797 128.994 203.568 132.172 195.582C133.938 191.155 137.496 187.977 145.047 184.229C152.489 180.535 165.607 175.347 184.674 174.397C177.205 137.213 189.998 106.739 209.907 99.7041C222.971 95.1138 242.229 99.4324 248.774 111.085Z" fill="white" stroke="#191919" stroke-width="2"/>
<path d="M247.036 114.154C239.159 124.122 237.367 137.512 234.352 149.49C231.12 162.31 227.399 175.103 221.831 187.135C218.761 193.736 215.149 200.091 210.83 205.958C210.532 206.393 211.238 206.8 211.537 206.365C219.115 196.044 224.465 184.338 228.594 172.278C232.777 160.002 235.547 147.345 238.806 134.823C240.653 127.707 243.016 120.591 247.634 114.751C247.932 114.317 247.362 113.746 247.036 114.154Z" fill="#191919"/>
<path d="M197.956 157.91C198.934 160.029 199.966 163.043 200.129 166.683C200.374 172.17 198.581 176.542 197.223 179.068C196.49 180.019 195.186 181.594 193.257 183.306C193.257 183.306 188.885 187.162 181.931 190.123C174.842 193.165 154.227 196.832 126.224 197.538C127.039 201.015 128.506 205.279 131.113 209.869C132.553 212.395 134.128 214.622 135.676 216.551C134.644 217.909 131.711 221.358 125.871 223.531C120.249 225.622 115.088 225.378 113.051 225.215C110.118 222.526 107.103 219.321 104.305 215.491C96.0755 204.165 94.147 193.219 93.7939 186.185C95.831 184.718 98.8187 182.708 102.73 180.562C110.878 176.081 118.347 173.636 124.486 171.816C135.051 168.72 145.155 166.574 168.405 162.636C175.684 161.414 185.761 159.73 197.956 157.91Z" fill="white" stroke="#191919" stroke-width="2"/>
<path opacity="0.19" d="M172.153 162.582C171.366 167.77 169.139 174.506 162.24 178.688C155.531 182.762 149.909 181.106 136.464 184.365C126.795 186.701 114.002 189.797 110.444 196.669C106.723 203.894 113.757 214.079 126.061 222.445C127.093 222.309 128.397 222.037 129.782 221.494C133.34 220.082 135.079 217.773 135.731 216.768C134.155 214.867 132.526 212.667 131.032 210.141C128.207 205.415 126.686 201.015 125.817 197.457C140.212 196.859 152.299 195.61 161.479 194.415C172.534 192.975 180.193 191.535 187.499 187.407C193.611 183.958 196.055 180.562 196.924 179.259C199.559 175.266 199.776 171.626 199.885 169.589C200.156 164.619 198.527 160.572 197.169 158.019C188.83 159.54 180.492 161.061 172.153 162.582Z" fill="#6C6D6D"/>
<path opacity="0.19" d="M197.44 158.589C196.897 163.641 194.968 171.627 187.282 177.928C182.556 181.812 177.477 183.55 157.541 188.928C148.74 191.291 138.093 194.089 125.979 197.131C141.38 196.968 153.901 195.691 162.891 194.469C172.207 193.192 176.771 192.079 181.497 190.042C185.978 188.113 195.023 184.202 198.717 175.972C202.275 167.987 198.689 160.816 197.44 158.589Z" fill="#6C6D6D"/>
<path d="M202.927 157.068C203.877 159.757 204.855 163.505 205.018 168.095C205.263 174.994 203.524 180.481 202.221 183.659C201.514 184.854 200.265 186.836 198.418 189.009C198.418 189.009 194.235 193.871 187.554 197.592C180.736 201.395 160.909 206.039 134.019 206.908C134.807 211.281 136.192 216.632 138.718 222.39C140.103 225.568 141.624 228.366 143.118 230.783C142.141 232.494 139.316 236.813 133.693 239.556C128.288 242.191 123.345 241.892 121.362 241.647C118.538 238.279 115.631 234.232 112.97 229.425C105.039 215.193 103.192 201.422 102.866 192.595C104.821 190.775 107.7 188.222 111.449 185.533C119.298 179.91 126.441 176.814 132.363 174.533C142.494 170.648 152.244 167.96 174.598 162.989C181.497 161.441 191.22 159.35 202.927 157.068Z" fill="white" stroke="#191919" stroke-width="2"/>
<path opacity="0.19" d="M178.129 162.935C177.368 169.453 175.222 177.9 168.595 183.17C162.158 188.303 156.726 186.212 143.824 190.313C134.535 193.246 122.231 197.158 118.809 205.795C115.224 214.867 121.987 227.687 133.802 238.171C134.807 238.008 136.056 237.655 137.387 236.976C140.809 235.21 142.466 232.304 143.091 231.027C141.57 228.637 139.995 225.867 138.555 222.689C135.839 216.741 134.372 211.227 133.557 206.745C147.41 205.985 159.007 204.437 167.862 202.943C178.509 201.15 185.842 199.33 192.877 194.143C198.744 189.797 201.107 185.533 201.922 183.903C204.448 178.878 204.665 174.315 204.774 171.762C205.018 165.515 203.47 160.436 202.166 157.231C194.154 159.105 186.141 161.006 178.129 162.935Z" fill="#6C6D6D"/>
<path opacity="0.19" d="M202.411 157.91C201.894 164.239 200.048 174.288 192.66 182.219C188.097 187.108 183.235 189.281 164.086 196.044C155.612 199.032 145.4 202.536 133.748 206.365C148.55 206.148 160.61 204.573 169.247 203.024C178.21 201.422 182.61 200.037 187.119 197.484C191.437 195.039 200.102 190.15 203.687 179.775C207.082 169.725 203.633 160.735 202.411 157.91Z" fill="#6C6D6D"/>
<path d="M123.263 114.86C122.747 114.615 121.715 114.154 121.742 113.638C121.797 112.796 124.594 112.225 126.686 112.252C128.098 112.252 130.706 112.551 133.748 114.67C130.896 115.566 126.686 116.381 123.263 114.86Z" fill="white" stroke="#191919" stroke-width="2"/>
<path d="M188.586 79.6321C183.425 78.9531 178.781 86.694 178.346 87.4002C176.771 90.0891 176.581 91.8817 175.494 96.7979C172.86 108.776 171.447 114.86 167.536 118.527C164.005 121.813 159.877 122.601 158.79 122.764C154.146 123.497 149.936 121.759 141.733 118.255C134.807 115.294 133.965 114.208 130.19 113.773C128.261 113.556 122.639 112.931 118.918 116.544C116.528 118.853 115.468 122.546 116.338 123.307C117.451 124.285 122.014 120.835 122.069 120.917C122.096 120.971 120.711 121.623 119.57 123.035C118.999 123.714 118.022 125.181 118.375 125.561C118.999 126.322 122.829 121.704 127.039 122.519C129.918 123.063 130.461 125.67 133.802 126.159C135.758 126.458 137.469 125.86 138.555 125.344C140.457 127.408 143.553 130.342 148.035 132.732C150.696 134.144 160.094 139.006 171.583 136.181C183.778 133.194 189.917 123.66 191.845 120.672C192.932 118.961 200.917 106.196 197.06 91.8817C196.381 89.573 193.909 80.3383 188.586 79.6321Z" fill="white" stroke="#191919" stroke-width="2"/>
<path opacity="0.25" d="M188.043 79.7136C186.277 80.6371 189.699 87.0471 189.265 96.2275C188.857 105.055 185.082 111.573 183.398 114.561C181.117 118.554 178.102 123.769 172.099 127.164C164.032 131.727 154.037 131.048 146.921 127.952C144.802 127.028 142.657 124.04 137.985 122.221C135.948 121.433 134.345 121.107 132.471 120.727C127.881 119.83 123.807 119.016 120.032 120.917C118.239 121.84 116.745 123.253 116.854 123.443C116.962 123.633 119.054 122.574 120.901 121.569C118.674 124.529 118.32 125.371 118.483 125.534C118.674 125.697 119.353 125.072 121.091 124.095C122.965 123.063 124.323 122.329 125.98 122.465C126.822 122.547 127.474 122.818 127.854 122.981C129.348 123.633 129.701 124.393 131.195 125.154C132.118 125.616 132.879 125.806 133.286 125.887C134.155 126.077 135.948 126.322 138.311 125.48C140.375 127.653 149.854 137.268 163.734 137.078C170.877 136.969 176.119 134.307 178.183 133.248C189.509 127.354 194.018 116.897 195.159 114.018C198.69 105.109 199.939 91.9089 193.475 83.6248C191.927 81.6149 189.265 79.0889 188.043 79.7136Z" fill="#6C6D6D"/>
<path d="M116.826 123.307C117.886 121.732 119.271 120.482 120.928 119.586C121.281 119.396 120.955 118.88 120.629 119.07C118.891 120.02 117.424 121.351 116.31 123.008C116.066 123.334 116.609 123.633 116.826 123.307Z" fill="#191919"/>
<path d="M117.153 119.803C118.212 118.146 119.923 117.277 121.634 116.435C121.987 116.272 121.689 115.729 121.335 115.919C119.516 116.788 117.723 117.739 116.609 119.504C116.419 119.83 116.935 120.129 117.153 119.803Z" fill="#191919"/>
<path opacity="0.29" d="M195.837 89.4915C195.43 92.2347 194.697 96.2002 193.393 100.872C190.84 110.107 188.531 118.418 182.501 125.018C175.032 133.166 164.901 135.394 159.089 136.073C163.407 137.077 166.802 136.887 168.948 136.589C185.245 134.307 194.045 116.788 196.435 109.129C196.842 107.771 197.712 104.973 197.82 101.144C198.01 96.0373 196.761 91.9359 195.837 89.4915Z" fill="#6C6D6D"/>
<path opacity="0.26" d="M127.582 122.193C129.13 122.954 131.249 123.796 133.856 124.285C135.92 124.665 137.767 124.746 139.234 124.692C135.513 126.675 133.585 126.43 132.498 125.778C131.819 125.371 131.059 124.556 128.967 123.117C128.397 122.709 127.908 122.383 127.582 122.193Z" fill="#6C6D6D"/>
<path d="M38.9287 165.243C52.1018 152.831 65.2749 140.391 78.4751 127.979C99.7965 128.359 121.091 128.739 142.412 129.119C138.935 141.179 135.459 153.211 131.982 165.271C100.964 165.243 69.9466 165.243 38.9287 165.243Z" fill="white" stroke="#191919" stroke-width="2"/>
<path d="M142.086 129.119C138.99 141.206 135.432 153.184 131.357 164.972C131.004 165.977 132.58 166.384 132.933 165.406C137.007 153.591 140.565 141.641 143.661 129.554C143.906 128.549 142.358 128.114 142.086 129.119Z" fill="#161616"/>
<path d="M117.75 160.11C100.991 159.675 84.2058 159.268 67.4475 158.833C77.3884 149.327 87.3022 139.794 97.2431 130.287C108.705 130.885 120.194 131.482 131.656 132.08C127.012 141.45 122.394 150.767 117.75 160.11Z" fill="white" stroke="#191919" stroke-width="2"/>
<path d="M96.6729 130.097C86.9221 139.522 77.1713 148.974 67.4205 158.399C66.9859 143.297 66.5242 128.169 66.0896 113.067C75.9762 106.82 85.8628 100.573 95.7494 94.3262C96.021 106.25 96.3469 118.174 96.6729 130.097Z" fill="white" stroke="#191919" stroke-width="2"/>
<path d="M66.9859 114.507C67.7736 127.952 68.2896 141.423 68.5613 154.895C68.5613 155.167 68.9687 155.167 68.9687 154.895C68.6971 141.423 68.181 127.952 67.3933 114.507C67.3662 114.262 66.9588 114.262 66.9859 114.507Z" fill="#191919"/>
<path d="M67.2033 114.561C76.3022 108.64 85.4012 102.719 94.5001 96.7978C94.7174 96.662 94.5273 96.3089 94.2828 96.4447C85.1839 102.366 76.0849 108.287 66.986 114.208C66.7687 114.371 66.9589 114.724 67.2033 114.561Z" fill="#191919"/>
<path d="M94.3915 96.7706C94.3643 107.608 94.6902 118.472 95.3964 129.282C95.4236 129.554 95.831 129.554 95.8038 129.282C95.1248 118.445 94.7717 107.608 94.7989 96.7706C94.7989 96.5262 94.3915 96.5262 94.3915 96.7706Z" fill="#191919"/>
<path d="M68.8329 155.466C77.7417 146.855 86.6776 138.245 95.5864 129.663C95.7766 129.472 95.4778 129.201 95.2877 129.364C86.3789 137.974 77.4429 146.584 68.5341 155.167C68.3711 155.357 68.6428 155.656 68.8329 155.466Z" fill="#191919"/>
<path d="M110.091 150.848C111.747 148.213 113.404 145.552 115.007 142.863C115.143 142.645 114.789 142.428 114.654 142.645C113.051 145.334 111.394 147.996 109.738 150.631C109.575 150.848 109.928 151.065 110.091 150.848Z" fill="#191919"/>
<path d="M114.898 142.781C117.044 142.863 119.189 142.863 121.335 142.754C121.607 142.754 121.607 142.347 121.335 142.347C119.189 142.428 117.044 142.428 114.898 142.374C114.626 142.374 114.626 142.781 114.898 142.781Z" fill="#191919"/>
<path d="M121.063 142.645C119.841 145.307 118.592 147.969 117.342 150.631C117.234 150.875 117.587 151.065 117.695 150.848C118.945 148.186 120.194 145.525 121.416 142.863C121.525 142.591 121.172 142.401 121.063 142.645Z" fill="#191919"/>
<path d="M109.955 151.065C112.345 151.418 114.871 151.255 117.288 151.147C117.56 151.147 117.56 150.739 117.288 150.739C114.925 150.848 112.426 151.011 110.063 150.685C109.792 150.631 109.683 151.038 109.955 151.065Z" fill="#191919"/>
<path d="M118.863 142.673C117.777 145.389 116.527 148.023 115.115 150.576C114.979 150.794 115.332 151.011 115.468 150.794C116.88 148.186 118.157 145.524 119.271 142.781C119.352 142.537 118.972 142.428 118.863 142.673Z" fill="#191919"/>
<path d="M79.5073 154.977C85.4827 147.589 91.6754 140.364 98.0583 133.302C98.2212 133.112 97.9496 132.813 97.7595 133.003C91.3767 140.038 85.184 147.263 79.2085 154.678C79.0456 154.895 79.3443 155.167 79.5073 154.977Z" fill="#191919"/>
<path d="M86.732 155.438C92.0827 147.969 97.7322 140.744 103.653 133.737C103.816 133.546 103.545 133.248 103.354 133.438C97.4062 140.473 91.7567 147.725 86.3789 155.221C86.2159 155.438 86.569 155.656 86.732 155.438Z" fill="#191919"/>
<path d="M94.4998 156.552C99.1444 148.784 104.223 141.287 109.71 134.09C109.873 133.873 109.52 133.682 109.357 133.873C103.87 141.07 98.7913 148.567 94.1468 156.335C94.011 156.552 94.364 156.769 94.4998 156.552Z" fill="#191919"/>
<path d="M101.019 157.231C105.582 148.73 110.987 140.717 117.179 133.329C117.342 133.139 117.071 132.84 116.881 133.03C110.661 140.445 105.229 148.485 100.638 157.014C100.53 157.258 100.883 157.475 101.019 157.231Z" fill="#191919"/>
<path d="M82.9839 150.576C89.9371 149.843 96.8903 150.712 103.816 151.636C104.088 151.663 104.061 151.256 103.816 151.228C96.9175 150.305 89.9642 149.409 82.9839 150.169C82.7394 150.196 82.7394 150.604 82.9839 150.576Z" fill="#191919"/>
<path d="M86.4878 146.611C93.0607 146.367 99.6337 146.855 106.098 148.105C106.342 148.159 106.451 147.752 106.207 147.725C99.7152 146.475 93.0879 145.986 86.4878 146.231C86.2433 146.204 86.2433 146.611 86.4878 146.611Z" fill="#191919"/>
<path d="M89.6383 142.781C95.9668 142.374 102.295 142.944 108.461 144.465C108.705 144.52 108.814 144.139 108.569 144.085C102.377 142.537 96.0211 141.966 89.6383 142.374C89.3667 142.401 89.3667 142.808 89.6383 142.781Z" fill="#191919"/>
<path d="M92.8977 138.952C98.9818 138.979 105.011 139.603 110.96 140.826C111.204 140.88 111.313 140.473 111.068 140.445C105.093 139.223 99.0089 138.599 92.8977 138.571C92.6532 138.544 92.6532 138.952 92.8977 138.952Z" fill="#191919"/>
<path d="M96.1297 135.394C101.915 135.502 107.673 136.181 113.295 137.458C113.54 137.512 113.649 137.132 113.404 137.077C107.727 135.801 101.942 135.095 96.1297 135.013C95.8581 134.986 95.8581 135.394 96.1297 135.394Z" fill="#191919"/>
<path d="M114.762 139.522C112.1 143.433 109.466 147.344 106.804 151.256C106.668 151.473 107.021 151.69 107.157 151.473C109.819 147.562 112.453 143.65 115.115 139.739C115.278 139.495 114.925 139.305 114.762 139.522Z" fill="#191919"/>
<path d="M69.7836 133.601C73.1787 132.161 76.8455 132.976 80.4307 132.922C83.4456 132.895 86.3247 132.053 88.905 130.532C89.1222 130.396 88.9321 130.043 88.6877 130.179C85.5098 132.053 82.1419 132.65 78.5023 132.487C75.4603 132.352 72.4454 132.053 69.5663 133.275C69.349 133.357 69.5392 133.71 69.7836 133.601Z" fill="#191919"/>
<path d="M78.9369 131.917C84.7494 128.63 87.4383 121.704 93.4952 118.798C93.7397 118.69 93.5224 118.336 93.2779 118.445C87.1939 121.378 84.5321 128.277 78.7197 131.564C78.5024 131.7 78.6925 132.053 78.9369 131.917Z" fill="#191919"/>
<path d="M86.3245 112.551C85.3195 111.763 85.4825 110.487 86.0529 109.482C86.3245 108.993 86.7319 108.477 87.1936 108.178C88.0356 107.635 88.8233 108.07 89.4752 108.64C89.6653 108.803 89.964 108.531 89.7739 108.341C88.4159 107.2 87.1393 107.309 86.0257 108.776C85.1294 109.971 84.6677 111.763 86.0257 112.85C86.243 113.013 86.5418 112.714 86.3245 112.551Z" fill="#191919"/>
<path d="M169.98 92.6966C162.538 100.954 160.528 110.025 159.442 115.159C157.459 124.665 159.551 128.468 159.686 146.53C159.741 154.216 159.415 160.436 159.17 164.347C160.854 165.651 171.284 173.419 185.218 170.866C195.539 168.992 201.759 162.528 203.714 160.327C204.176 157.747 204.828 153.945 205.589 149.327C209.608 124.421 211.591 111.791 209.092 102.746C207.598 97.2597 203.905 88.5682 193.42 79.5779C189.02 80.5014 178.455 83.3261 169.98 92.6966Z" fill="#FCC11E"/>
<path opacity="0.19" d="M177.558 87.6989C180.139 95.4126 181.524 102.013 182.339 106.847C184.484 119.64 187.716 138.816 178.618 157.394C175.711 163.315 172.316 167.661 169.926 170.35C173.077 171.083 179.324 172.088 186.766 170.16C195.62 167.878 201.161 162.745 203.443 160.409C205.208 150.305 206.621 141.641 207.707 134.878C209.581 122.981 210.016 119.369 209.826 114.289C209.608 107.771 209.309 100.926 205.398 93.5385C201.65 86.4766 196.381 82.2395 193.149 80.0667C190.514 80.5284 186.793 81.5062 182.855 83.7877C180.682 85.0914 178.916 86.4766 177.558 87.6989Z" fill="#6C6D6D"/>
<path opacity="0.18" d="M208.413 100.655C207.924 100.682 208.956 108.205 207.354 118.581C204.393 137.784 194.887 151.093 191.22 155.819C188.151 159.757 183.344 165.189 176.309 170.54C178.835 170.92 182.203 171.083 186.06 170.35C195.213 168.639 201.025 163.016 203.253 160.599C203.823 157.285 204.746 152.098 205.914 145.688C208.658 130.695 209.201 128.902 209.635 124.23C210.83 111.492 208.984 100.655 208.413 100.655Z" fill="#6C6D6D"/>
<path d="M122.123 120.835C121.606 120.482 120.574 119.83 120.683 119.287C120.9 118.418 124.024 118.282 126.278 118.662C127.799 118.907 130.57 119.695 133.476 122.438C130.217 122.9 125.518 123.035 122.123 120.835Z" fill="white" stroke="#191919" stroke-width="2"/>
<path d="M198.798 94.8151C193.339 93.2126 186.956 100.573 186.386 101.279C184.213 103.86 183.697 105.707 181.66 110.704C176.716 122.927 174.136 129.092 169.247 132.297C164.874 135.176 160.284 135.285 159.062 135.285C153.928 135.258 149.691 132.705 141.434 127.598C134.481 123.28 133.775 121.976 129.755 120.89C127.718 120.346 121.742 118.717 117.098 121.895C114.137 123.905 112.318 127.653 113.132 128.603C114.165 129.826 119.705 126.947 119.733 127.055C119.76 127.11 118.13 127.571 116.663 128.875C115.93 129.5 114.626 130.858 114.925 131.347C115.468 132.27 120.412 128.033 124.812 129.608C127.799 130.668 127.962 133.52 131.466 134.633C133.53 135.285 135.486 134.932 136.735 134.579C138.419 137.105 141.271 140.717 145.671 144.004C148.306 145.959 157.595 152.695 170.496 151.69C184.186 150.631 192.497 141.586 195.077 138.789C196.571 137.186 207.408 125.045 205.751 109.238C205.507 106.657 204.448 96.4991 198.798 94.8151Z" fill="white" stroke="#191919" stroke-width="2"/>
<path opacity="0.25" d="M198.201 94.8151C196.136 95.4941 198.717 102.855 196.625 112.497C194.643 121.759 189.428 128.006 187.065 130.858C183.887 134.687 179.731 139.685 172.642 142.238C163.136 145.66 152.462 143.243 145.318 138.762C143.2 137.404 141.407 133.9 136.654 131.156C134.59 129.961 132.933 129.364 130.95 128.631C126.17 126.892 121.878 125.317 117.505 126.702C115.414 127.354 113.54 128.603 113.649 128.821C113.757 129.065 116.175 128.277 118.347 127.544C115.441 130.287 114.898 131.129 115.034 131.347C115.197 131.564 116.066 130.994 118.103 130.287C120.33 129.5 121.878 128.984 123.671 129.418C124.567 129.635 125.219 130.043 125.627 130.287C127.12 131.211 127.365 132.107 128.832 133.166C129.728 133.818 130.543 134.144 130.977 134.307C131.874 134.66 133.775 135.231 136.464 134.742C138.311 137.404 146.866 149.191 161.886 151.364C169.627 152.478 175.739 150.577 178.156 149.789C191.41 145.497 198.119 135.231 199.858 132.379C205.235 123.579 208.902 109.835 203.361 99.9485C202.058 97.4769 199.613 94.3534 198.201 94.8151Z" fill="#6C6D6D"/>
<path d="M113.621 128.685C115.061 127.191 116.745 126.105 118.701 125.453C119.081 125.317 118.918 124.746 118.538 124.855C116.5 125.561 114.681 126.702 113.187 128.25C112.915 128.549 113.35 128.984 113.621 128.685Z" fill="#191919"/>
<path d="M114.599 125.045C116.039 123.443 118.049 122.818 120.059 122.248C120.439 122.139 120.276 121.541 119.896 121.65C117.804 122.275 115.686 122.954 114.192 124.611C113.893 124.909 114.328 125.317 114.599 125.045Z" fill="#191919"/>
<path opacity="0.29" d="M204.909 106.494C203.986 109.319 202.492 113.393 200.292 118.119C195.919 127.436 191.981 135.828 184.294 141.777C174.815 149.11 163.462 149.735 157.079 149.436C161.56 151.256 165.281 151.636 167.644 151.69C185.625 152.071 198.228 135.041 202.139 127.381C202.818 126.023 204.23 123.198 205.045 119.179C206.104 113.774 205.48 109.238 204.909 106.494Z" fill="#6C6D6D"/>
<path opacity="0.26" d="M125.464 129.337C126.985 130.396 129.13 131.645 131.874 132.623C134.046 133.384 136.029 133.764 137.605 133.954C133.232 135.394 131.195 134.823 130.135 133.954C129.483 133.411 128.804 132.406 126.767 130.532C126.251 130.016 125.79 129.608 125.464 129.337Z" fill="#6C6D6D"/>
<path d="M156.698 40.0313C156.4 41.7696 156.101 43.5079 155.856 45.3277C154.797 52.7155 154.363 59.6958 154.335 66.1873C155.829 66.0243 157.296 65.8614 158.79 65.7256C158.627 67.1651 158.165 72.4343 161.533 77.6492C164.711 82.5654 169.274 84.358 170.686 84.8469C170.523 87.5087 170.388 90.1433 170.225 92.8051C173.158 90.1976 177.151 87.1284 182.23 84.3852C186.114 82.2938 189.781 80.8542 192.904 79.8764C189.4 75.5307 188.069 71.4294 187.499 69.0664C186.521 64.9922 186.711 61.4885 186.901 58.3921C187.092 55.2143 187.553 52.5797 187.961 50.7327C189.237 44.9203 185.897 35.7127 179.242 32.399C172.669 29.1126 162.864 31.883 156.698 40.0313Z" fill="white" stroke="#161616" stroke-width="2"/>
<path d="M158.165 65.9157C158.926 65.807 159.714 65.7255 160.474 65.6441C160.746 65.6169 160.746 65.2095 160.474 65.2367C159.659 65.3181 158.872 65.4268 158.057 65.5354C157.812 65.5354 157.921 65.9428 158.165 65.9157Z" fill="#161616"/>
<path d="M182.664 44.2413C179.378 45.0833 178.78 47.9352 174.625 53.8834C170.415 59.9132 167.753 63.6886 163 65.8886C159.931 67.301 158.41 66.9207 157.052 68.7405C154.716 71.8912 156.291 77.0789 157.676 79.7407C159.279 82.8099 161.723 84.6568 163.733 86.1778C165.662 87.6174 167.427 88.568 168.677 89.1384C167.346 87.1013 167.264 86.4766 167.427 86.2865C167.862 85.8519 169.709 88.1878 171.882 87.889C172.506 87.8075 173.62 87.4544 176.091 83.5704C177.775 80.9358 178.916 79.116 179.677 76.5085C181.334 70.9134 178.998 69.3924 179.677 62.0317C179.785 60.9181 180.546 52.1995 183.642 51.6291C184.756 51.4118 185.897 52.3353 186.44 53.0414C187.581 54.5353 187.445 56.9255 186.032 58.9897C186.494 58.6638 190.921 55.6761 190.867 50.8142C190.867 50.0537 190.84 47.2562 188.721 45.4364C186.304 43.3721 182.936 44.187 182.664 44.2413Z" fill="#161616" stroke="#161616" stroke-width="2"/>
<ellipse cx="160.773" cy="54.5625" rx="1.14076" ry="2.03707" fill="#161616"/>
<ellipse cx="152.081" cy="55.5131" rx="1.14076" ry="2.03707" fill="#161616"/>
<path d="M150.37 52.1723C151.103 51.3303 152.244 51.2488 153.059 52.0636C153.439 52.4439 154.009 51.8463 153.629 51.4932C152.516 50.4068 150.804 50.434 149.772 51.6019C149.474 52.0093 150.044 52.5797 150.37 52.1723Z" fill="#161616"/>
<path d="M159.279 50.7599C160.23 49.9722 161.479 50.0809 162.294 50.9772C162.647 51.3575 163.217 50.7871 162.864 50.4068C161.723 49.1846 159.958 49.1303 158.681 50.1895C158.301 50.5155 158.872 51.0858 159.279 50.7599Z" fill="#161616"/>
<path d="M155.775 43.2634C156.074 41.3078 156.835 38.1028 158.926 34.7892C159.659 33.6213 161.235 31.1496 163.734 29.4656C168.514 26.2878 175.875 26.5322 181.225 30.4434C186.467 34.2731 189.075 41.1177 187.934 47.9079C177.205 46.3869 166.504 44.8387 155.775 43.2634Z" fill="#FCC11E"/>
<path d="M138.229 43.5079C154.716 45.6265 171.23 47.7451 187.717 49.8365C189.265 50.0266 189.265 47.5821 187.717 47.392C171.23 45.2734 154.716 43.1549 138.229 41.0635C136.681 40.8462 136.681 43.2907 138.229 43.5079Z" fill="#161616"/>
<path d="M169.736 27.483C173.973 28.4065 177.178 31.8287 177.721 35.93C178.21 39.5153 176.635 43.1549 173.647 45.3821C178.346 46.0068 183.072 46.6586 187.771 47.2833C188.015 46.0339 188.232 44.1327 187.934 41.9055C187.228 36.6905 184.213 33.3497 183.235 32.3448C182.176 31.2584 178.427 27.6188 172.859 27.2929C171.583 27.2385 170.496 27.3472 169.736 27.483Z" fill="#D53B85"/>
</g>
<defs>
<filter id="filter0_d_801_3903" x="-83" y="-79" width="462" height="328" filterUnits="userSpaceOnUse" color-interpolation-filters="sRGB">
<feFlood flood-opacity="0" result="BackgroundImageFix"/>
<feColorMatrix in="SourceAlpha" type="matrix" values="0 0 0 0 0 0 0 0 0 0 0 0 0 0 0 0 0 0 127 0" result="hardAlpha"/>
<feOffset dy="4"/>
<feGaussianBlur stdDeviation="41.5"/>
<feComposite in2="hardAlpha" operator="out"/>
<feColorMatrix type="matrix" values="0 0 0 0 0 0 0 0 0 0 0 0 0 0 0 0 0 0 0.05 0"/>
<feBlend mode="normal" in2="BackgroundImageFix" result="effect1_dropShadow_801_3903"/>
<feBlend mode="normal" in="SourceGraphic" in2="effect1_dropShadow_801_3903" result="shape"/>
</filter>
<clipPath id="clip0_801_3903">
<rect width="296" height="162" rx="18" fill="white"/>
</clipPath>
</defs>
</svg>
