<svg width="183" height="200" viewBox="0 0 183 200" fill="none" xmlns="http://www.w3.org/2000/svg">
<ellipse opacity="0.1" cx="75.135" cy="87.1895" rx="65.4987" ry="72.34" transform="rotate(-8.18914 75.135 87.1895)" fill="#FCC11E"/>
<ellipse opacity="0.1" cx="97.4321" cy="120.51" rx="65.4987" ry="52.4894" transform="rotate(-109.976 97.4321 120.51)" fill="#FCC11E"/>
<ellipse cx="94.5855" cy="92.0023" rx="65.4987" ry="72.34" transform="rotate(22.6816 94.5855 92.0023)" fill="#FCC11E"/>
<path d="M105.222 94.1137C104.914 93.9912 104.586 93.9306 104.254 93.9353C103.923 93.9399 103.596 94.0098 103.292 94.1408C102.987 94.2719 102.712 94.4616 102.481 94.6991C102.25 94.9366 102.068 95.2173 101.946 95.5251C101.823 95.8329 101.763 96.1618 101.767 96.493C101.772 96.8243 101.842 97.1514 101.973 97.4556C102.104 97.7599 102.294 98.0353 102.531 98.2662C102.769 98.4972 103.049 98.6791 103.357 98.8015C107.037 100.263 109.33 102.532 109.33 104.724C109.33 108.303 103.13 112.285 94.2084 112.285C85.2864 112.285 79.0863 108.303 79.0863 104.724C79.0863 102.532 81.3798 100.263 85.0595 98.8015C85.6812 98.5542 86.1791 98.0701 86.4438 97.4556C86.7085 96.8412 86.7182 96.1467 86.4709 95.5251C86.2236 94.9034 85.7395 94.4055 85.125 94.1408C84.5106 93.8761 83.8161 93.8664 83.1945 94.1137C77.4733 96.382 74.0457 100.339 74.0457 104.724C74.0457 111.781 82.892 117.326 94.2084 117.326C105.525 117.326 114.371 111.781 114.371 104.724C114.371 100.339 110.943 96.382 105.222 94.1137ZM91.688 86.7291V104.724C91.688 105.393 91.9536 106.034 92.4262 106.506C92.8989 106.979 93.5399 107.245 94.2084 107.245C94.8768 107.245 95.5178 106.979 95.9905 106.506C96.4632 106.034 96.7287 105.393 96.7287 104.724V86.7291C99.1045 86.1157 101.175 84.6568 102.552 82.626C103.929 80.5951 104.519 78.1318 104.209 75.6976C103.9 73.2634 102.714 71.0256 100.873 69.4035C99.0316 67.7814 96.6621 66.8865 94.2084 66.8865C91.7546 66.8865 89.3851 67.7814 87.544 69.4035C85.7029 71.0256 84.5165 73.2634 84.2074 75.6976C83.8982 78.1318 84.4874 80.5951 85.8645 82.626C87.2417 84.6568 89.3122 86.1157 91.688 86.7291ZM94.2084 71.9599C95.2053 71.9599 96.1799 72.2556 97.0088 72.8094C97.8377 73.3633 98.4838 74.1506 98.8653 75.0716C99.2468 75.9927 99.3467 77.0062 99.1522 77.984C98.9577 78.9618 98.4776 79.86 97.7726 80.5649C97.0677 81.2699 96.1695 81.7499 95.1917 81.9444C94.2139 82.1389 93.2004 82.0391 92.2794 81.6576C91.3583 81.2761 90.5711 80.63 90.0172 79.8011C89.4633 78.9721 89.1677 77.9976 89.1677 77.0006C89.1677 75.6637 89.6987 74.3816 90.6441 73.4363C91.5894 72.491 92.8715 71.9599 94.2084 71.9599Z" fill="white"/>
</svg>
