<svg width="296" height="162" viewBox="0 0 296 162" fill="none" xmlns="http://www.w3.org/2000/svg">
<g clip-path="url(#clip0_801_4108)">
<g filter="url(#filter0_d_801_4108)">
<rect width="296" height="162" rx="18" fill="#FCC11E"/>
</g>
<ellipse cx="50.4108" cy="119.411" rx="48.5" ry="143" transform="rotate(45 50.4108 119.411)" fill="#FFD04E"/>
<ellipse cx="166.411" cy="119.411" rx="48.5" ry="143" transform="rotate(45 166.411 119.411)" fill="#FFD04E"/>
<path d="M217.542 197.701C245.868 189.904 273.489 179.909 301.525 171.117C329.477 162.325 358.01 154.652 387.249 151.666C403.547 150.007 420.012 149.8 436.311 151.666C437.099 151.749 437.099 150.505 436.311 150.422C407.363 147.146 378.125 150.339 349.799 156.602C321.058 162.947 293.189 172.444 265.277 181.651C249.352 186.918 233.426 192.061 217.252 196.498C216.423 196.706 216.754 197.908 217.542 197.701Z" fill="#E8E8E8"/>
<path d="M-72.2274 143.621C-43.4868 143.289 -14.7877 148.514 11.9622 159.007C19.6347 162.035 27.1412 165.518 34.4404 169.375C35.1455 169.748 35.7676 168.67 35.0625 168.297C9.55682 154.777 -18.5202 146.316 -47.2193 143.455C-55.5139 142.625 -63.8914 142.252 -72.2274 142.376C-73.0154 142.376 -73.0154 143.621 -72.2274 143.621Z" fill="#E8E8E8"/>
<path d="M-43.2794 94.9732C-20.5938 100.655 0.101051 111.811 21.5424 120.894C43.1912 130.059 65.9182 136.404 89.1844 139.556C102.29 141.34 115.561 142.128 128.791 141.92C129.579 141.92 129.579 140.676 128.791 140.676C104.944 141.049 81.0558 138.146 57.997 132.091C46.6749 129.105 35.6017 125.373 24.7773 120.894C14.0359 116.456 3.50182 111.396 -7.1152 106.71C-18.769 101.567 -30.5888 96.8395 -42.9476 93.7705C-43.6941 93.5631 -44.0259 94.7659 -43.2794 94.9732Z" fill="#E8E8E8"/>
<path d="M111.289 166.597C132.814 174.891 156.453 170.371 177.563 163.071C188.926 159.131 199.958 154.404 211.238 150.298C222.312 146.275 233.551 142.791 244.956 139.847C258.144 136.446 271.54 133.792 285.018 131.884C285.806 131.759 285.475 130.557 284.687 130.681C261.337 133.999 238.362 139.556 216.091 147.27C194.193 154.86 173.001 165.601 149.817 168.877C137.002 170.702 123.772 170.08 111.621 165.394C110.874 165.103 110.543 166.306 111.289 166.597Z" fill="#E8E8E8"/>
<ellipse cx="32.7402" cy="88.7523" rx="4.23022" ry="4.14727" fill="#E34B94"/>
<ellipse cx="194.442" cy="144.45" rx="3.23487" ry="3.15193" fill="#E34B94"/>
<ellipse cx="24.3626" cy="82.4898" rx="4.1058" ry="4.02285" fill="#E34B94"/>
<ellipse cx="278.176" cy="35.0036" rx="3.06898" ry="2.98604" fill="#E34B94"/>
<ellipse cx="290.576" cy="24.3451" rx="2.57131" ry="2.48836" fill="#E34B94"/>
<path d="M10.6352 147.063C6.81975 147.146 5.20231 152.454 6.44649 155.606C7.02711 157.058 8.31276 157.431 9.76431 157.182C10.2205 157.099 10.8011 156.809 11.2988 156.809C13.248 156.933 13.2065 158.136 12.6259 159.297C12.2112 160.127 11.755 160.79 11.5476 161.703C11.2988 162.864 11.5062 164.15 12.7089 164.647C13.3724 164.938 14.1604 164.44 14.741 164.647C16.8147 165.311 15.1558 167.924 14.9899 169.209C14.824 170.619 15.1972 172.237 16.5658 172.9C17.7685 173.481 19.2201 173.108 19.8422 171.905C20.2154 171.2 19.1371 170.578 18.7639 171.283C17.3538 172.403 16.5244 171.988 16.1926 169.956C16.1926 169.375 16.2755 168.836 16.4414 168.297C16.6488 167.384 17.0635 166.555 17.1465 165.601C17.1879 164.938 17.1465 164.232 16.6488 163.735C15.6534 162.822 13.248 164.15 12.7089 162.532C12.3771 161.537 13.8701 159.878 14.1604 158.965C14.741 157.182 14.036 155.399 11.9209 155.44C10.179 155.482 8.1054 157.265 7.48331 154.155C7.02711 151.998 8.06393 148.307 10.7182 148.265C11.4232 148.265 11.4647 147.021 10.6352 147.063Z" fill="#E34B94"/>
<path d="M241.763 106.005C237.574 106.088 233.676 108.991 232.68 113.138C231.809 116.746 234.049 121.06 238.155 118.82C239.606 118.032 241.058 116.622 241.307 114.88C241.472 113.511 240.602 112.35 239.15 112.475C237.118 112.641 235.252 115.046 234.173 116.539C232.929 118.239 231.643 120.603 231.851 122.801C232.265 126.575 237.698 127.322 239.606 124.336C239.938 123.838 239.274 123.092 238.735 123.465C235.874 125.663 232.888 129.271 234.007 133.17C234.878 136.239 238.196 138.437 241.307 137.358C242.053 137.109 241.721 135.907 240.975 136.156C238.196 137.109 235.293 134.787 235.044 131.967C234.795 128.939 237.076 126.285 239.357 124.543C239.067 124.253 238.777 123.963 238.486 123.672C237.657 124.999 235.791 125.29 234.422 124.585C232.473 123.548 233.012 121.308 233.759 119.649C234.381 118.239 235.293 116.954 236.33 115.834C236.745 115.378 237.823 114.134 238.403 114.051C238.943 114.175 239.523 114.341 240.062 114.465C240.021 115.004 239.855 115.461 239.565 115.917C238.445 117.742 235.625 119.193 234.09 117.078C233.053 115.71 233.717 113.138 234.422 111.77C235.832 109.032 238.652 107.291 241.68 107.249C242.551 107.208 242.551 105.963 241.763 106.005Z" fill="#E34B94"/>
<path d="M11.5892 -98.9947C11.216 -66.8118 2.92142 -34.8779 -12.2991 -6.51051C-16.5708 1.49371 -21.4231 9.16616 -26.7316 16.5068C-27.1878 17.1704 -26.1095 17.7925 -25.6533 17.1289C-6.65878 -9.12331 5.90746 -39.8961 10.6768 -71.9959C12.0039 -80.954 12.709 -89.9951 12.8334 -99.0361C12.8749 -99.7826 11.6307 -99.7826 11.5892 -98.9947Z" fill="#E8E8E8"/>
<path d="M246.408 -79.1708C243.505 -63.3282 241.265 -46.7391 242.053 -30.6062C242.675 -17.3764 246.283 -3.56603 257.066 4.97735C263.494 10.0785 271.333 12.8986 279.005 15.6358C279.752 15.9261 280.084 14.7234 279.337 14.4331C272.577 11.9862 265.651 9.53934 259.72 5.39207C254.039 1.45216 249.85 -4.06371 247.237 -10.4505C242.136 -22.9753 242.8 -37.2004 243.836 -50.4302C244.583 -59.9689 245.869 -69.4662 247.569 -78.8805C247.735 -79.627 246.532 -79.9588 246.408 -79.1708Z" fill="#E8E8E8"/>
<path d="M-23.5382 24.2206C7.40044 29.0729 35.9337 46.7818 54.1402 72.2875C59.2413 79.4623 63.513 87.2177 66.7479 95.3878C67.0382 96.1343 68.2409 95.8025 67.9506 95.056C56.3382 65.7763 32.0767 42.3857 3.08728 30.4001C-5.37316 26.9164 -14.2068 24.428 -23.2064 23.0179C-23.9944 22.8935 -24.3262 24.0962 -23.5382 24.2206Z" fill="#E8E8E8"/>
<path d="M74.7522 96.4246C89.392 85.0611 108.801 82.2409 126.759 84.8952C145.919 87.7153 163.296 96.9223 178.973 107.954C188.429 114.59 197.346 121.93 206.262 129.271C206.884 129.769 207.755 128.898 207.133 128.4C191.042 115.129 174.701 101.692 155.748 92.6921C138.828 84.6464 119.75 80.6235 101.087 83.8169C91.2168 85.5173 81.844 89.3742 73.8813 95.5122C73.2592 96.0513 74.1301 96.9223 74.7522 96.4246Z" fill="#E8E8E8"/>
<path d="M205.723 121.599C212.856 90.7844 232.307 63.4124 258.352 45.6206C265.817 40.5195 273.821 36.2063 282.199 32.8055C282.945 32.5152 282.613 31.3125 281.867 31.6028C252.172 43.7129 227.33 66.9791 213.437 95.8855C209.539 104.014 206.552 112.516 204.52 121.267C204.354 122.055 205.557 122.387 205.723 121.599Z" fill="#E8E8E8"/>
<path d="M18.6395 47.8602C24.8605 50.5144 29.5469 55.7815 33.9845 60.7167C38.5879 65.8179 42.8181 71.2508 46.7166 76.9326C54.2646 88.0058 60.2782 100.033 64.5913 112.724C64.8402 113.47 66.0429 113.138 65.794 112.392C61.3564 99.4108 55.1355 87.0519 47.3801 75.7298C43.5646 70.1725 39.3759 64.864 34.8554 59.8458C30.3349 54.8691 25.5655 49.4776 19.2616 46.8234C18.5566 46.4501 17.893 47.5284 18.6395 47.8602Z" fill="#161616"/>
<path d="M201.742 99.784C208.253 82.9875 218.746 67.9329 232.183 55.9473C232.763 55.4082 231.892 54.5372 231.312 55.0764C217.709 67.2279 207.133 82.4484 200.539 99.4522C200.249 100.199 201.451 100.489 201.742 99.784Z" fill="#161616"/>
<path d="M77.2819 88.462C87.733 77.4717 103.659 72.412 118.589 75.0663C119.377 75.1907 119.708 73.988 118.92 73.8636C103.534 71.1264 87.1939 76.2275 76.411 87.591C75.8303 88.1302 76.7013 89.0426 77.2819 88.462Z" fill="#E34B94"/>
<path d="M-15.1608 19.0365C-6.36855 20.8613 2.09188 23.8059 10.0961 27.8702C10.8012 28.2434 11.4232 27.1651 10.7182 26.7919C2.63103 22.6861 -5.95382 19.6586 -14.829 17.8338C-15.617 17.6679 -15.9487 18.8706 -15.1608 19.0365Z" fill="#E34B94"/>
<path d="M179.471 84.9368C184.364 75.3981 192.286 67.8086 201.907 63.1221C202.612 62.7904 201.99 61.7121 201.285 62.0438C191.456 66.8132 183.369 74.6101 178.392 84.3147C178.019 85.0197 179.097 85.6833 179.471 84.9368Z" fill="#E34B94"/>
<path d="M68.0449 52.7526C69.5793 56.734 69.7452 60.8812 68.584 64.987C68.3766 65.775 69.5793 66.1068 69.7867 65.3188C71.0309 61.0056 70.8235 56.6095 69.2476 52.4208C68.9573 51.6743 67.7545 52.0061 68.0449 52.7526Z" fill="#E34B94"/>
<path d="M92.1486 43.1034C94.3467 45.7576 97.0839 47.9142 100.153 49.4487C100.858 49.8219 101.48 48.7436 100.775 48.3704C97.7474 46.8774 95.1346 44.8037 93.0195 42.191C92.5219 41.6103 91.6509 42.4813 92.1486 43.1034Z" fill="#E34B94"/>
<path d="M215.676 33.9519C217.543 36.0255 218.372 38.7212 217.916 41.4999C217.791 42.2879 218.994 42.6197 219.118 41.8317C219.658 38.5968 218.745 35.4864 216.547 33.081C216.008 32.4589 215.137 33.3298 215.676 33.9519Z" fill="#E34B94"/>
<path d="M227.149 31.0849C228.683 32.8268 230.176 34.5272 231.711 36.269C232.25 36.8911 233.121 35.9787 232.582 35.3981C231.047 33.6562 229.554 31.9559 228.02 30.214C227.522 29.5919 226.651 30.4629 227.149 31.0849Z" fill="#E34B94"/>
<path d="M165.826 41.8465C168.688 36.8283 172.462 32.4737 177.065 28.99C177.687 28.4923 177.065 27.414 176.443 27.9117C171.674 31.5613 167.734 35.9989 164.748 41.2244C164.375 41.9295 165.453 42.5516 165.826 41.8465Z" fill="#E34B94"/>
<path d="M21.4595 15.2808C22.0401 18.3083 22.7451 21.5017 23.6575 24.8196C26.685 35.6439 30.9982 44.685 35.2699 51.9012C36.5141 52.1916 38.2974 52.6063 40.4954 52.8551C43.523 53.2284 48.4167 53.8505 53.9326 52.2745C55.2597 51.9012 54.6791 51.9427 60.5268 49.5373C66.3744 47.1319 66.7062 47.2148 68.9457 46.2195C72.7612 44.5606 76.2035 42.1552 82.9635 37.4687C84.9127 36.1001 87.6085 34.1924 90.7604 31.8284C90.9677 30.5013 91.2166 28.5521 91.1751 26.1882C91.0922 22.4556 90.3042 19.7599 89.1844 15.8615C87.4011 9.76496 86.1569 5.61769 85.3689 3.00491C83.793 2.00956 82.0926 1.01422 80.1434 0.10182C73.7151 -3.00863 67.6186 -4.25282 62.9322 -4.75049C58.1214 -4.37723 54.3059 -3.50631 51.7346 -2.80127C40.454 0.309183 32.6986 6.15684 27.8877 9.84791C25.0261 12.0045 22.8281 13.9537 21.4595 15.2808Z" fill="white"/>
<path d="M196.723 0.0603027C193.405 3.62696 189.88 7.89864 186.521 12.9168C184.862 15.4052 183.41 17.8106 182.125 20.1331C184.655 23.9071 187.184 27.6811 189.756 31.4137C195.437 33.6117 201.119 35.8098 206.801 38.0493C212.192 32.409 217.625 26.7687 223.017 21.087C221.607 16.525 220.197 12.0044 218.828 7.44244C216.049 6.03237 212.856 4.6223 209.206 3.33665C204.561 1.76068 200.373 0.723866 196.723 0.0603027Z" fill="white"/>
<path d="M21.0447 15.654C22.4548 29.0082 28.3439 41.1597 34.7307 52.8136C35.104 53.5186 36.1823 52.8965 35.809 52.1915C29.5466 40.7865 23.6575 28.8009 22.2889 15.654C22.206 14.866 20.9618 14.8245 21.0447 15.654Z" fill="#161616"/>
<path d="M22.2061 15.9859C32.3669 4.91267 46.3018 -2.26211 61.1905 -4.21132C61.9785 -4.29427 61.9785 -5.53845 61.1905 -5.45551C45.97 -3.46481 31.7034 3.75144 21.2937 15.0735C20.7961 15.6956 21.667 16.5665 22.2061 15.9859Z" fill="#161616"/>
<path d="M61.2733 -4.3773C68.0334 5.78351 71.1853 17.6032 74.2128 29.2571C74.4202 30.0451 75.6229 29.7133 75.4155 28.9253C72.3465 17.147 69.1531 5.24437 62.3516 -4.99939C61.8954 -5.66296 60.8171 -5.04087 61.2733 -4.3773Z" fill="#161616"/>
<path d="M36.1825 52.7721C43.772 50.4911 51.0712 47.4636 58.0386 43.6896C61.4809 41.8233 64.7987 39.7496 68.0336 37.5101C70.9366 35.5194 73.9642 33.4458 75.5401 30.2109C75.9134 29.5059 74.8351 28.8838 74.4618 29.5888C72.7614 33.0311 69.2777 35.1876 66.2088 37.2613C63.1812 39.2934 60.0293 41.2012 56.7945 42.943C50.1173 46.5097 43.1085 49.3713 35.8922 51.5694C35.1042 51.8182 35.436 53.0209 36.1825 52.7721Z" fill="#161616"/>
<path d="M61.9369 -4.29436C70.1485 -3.96257 78.0283 -1.22537 84.664 3.66841C85.3275 4.12461 85.9496 3.04632 85.2861 2.59011C78.4845 -2.42808 70.3974 -5.20676 61.9369 -5.53854C61.149 -5.58001 61.149 -4.33583 61.9369 -4.29436Z" fill="#161616"/>
<path d="M84.581 3.12924C88.3551 11.797 90.3457 21.0869 90.3872 30.5842C90.3872 31.3722 91.6314 31.3722 91.6314 30.5842C91.5485 20.8796 89.5163 11.3823 85.6179 2.50715C85.3275 1.76064 84.2907 2.38274 84.581 3.12924Z" fill="#161616"/>
<path d="M74.752 30.3354C79.8947 33.6532 85.9911 32.7408 91.59 31.2478C92.3779 31.0404 92.0462 29.8377 91.2582 30.0451C85.9911 31.4552 80.2679 32.3676 75.4156 29.2571C74.7106 28.8424 74.0885 29.9207 74.752 30.3354Z" fill="#161616"/>
<path d="M35.5189 52.9795C42.9011 54.6384 50.5735 54.0992 57.6239 51.3206C58.3704 51.0303 58.0386 49.8275 57.2921 50.1179C50.4491 52.8136 43.0255 53.4357 35.8507 51.7768C35.0627 51.6109 34.7309 52.8136 35.5189 52.9795Z" fill="#161616"/>
<path d="M57.9555 51.2375C70.2729 46.5926 81.7193 39.9155 91.7557 31.3721C92.3778 30.833 91.4654 29.962 90.8848 30.5012C81.0143 38.8787 69.7752 45.4728 57.6652 50.0348C56.8772 50.3251 57.209 51.5279 57.9555 51.2375Z" fill="#161616"/>
<path d="M195.769 -0.0641269C190.502 6.15678 185.692 12.7509 181.378 19.6354C180.964 20.299 182.042 20.9211 182.457 20.2575C186.728 13.456 191.498 6.94476 196.64 0.8068C197.18 0.226182 196.309 -0.686218 195.769 -0.0641269Z" fill="#161616"/>
<path d="M196.35 1.01421C203.815 2.21692 210.99 4.58087 217.667 8.0231C218.372 8.39635 218.994 7.31806 218.289 6.94481C211.488 3.41963 204.23 1.05568 196.64 -0.188497C195.894 -0.312915 195.562 0.889794 196.35 1.01421Z" fill="#161616"/>
<path d="M181.42 20.9625C187.889 23.907 194.276 26.976 200.622 30.2109C201.327 30.5841 201.949 29.5058 201.244 29.1326C194.898 25.9392 188.512 22.8702 182.042 19.8842C181.295 19.5524 180.673 20.6307 181.42 20.9625Z" fill="#161616"/>
<path d="M217.999 7.44256C212.441 14.8662 207.05 22.4142 201.824 30.0867C202.115 30.0037 202.405 29.9208 202.695 29.8793C202.239 29.6305 201.783 29.3402 201.285 29.0913C200.58 28.6766 199.958 29.7549 200.663 30.1696C201.119 30.4184 201.576 30.7088 202.073 30.9576C202.364 31.1235 202.737 30.9991 202.944 30.7502C208.128 23.0778 213.52 15.4883 219.119 8.10612C219.533 7.44256 218.455 6.82047 217.999 7.44256Z" fill="#161616"/>
<path d="M217.874 8.14744C219.741 12.5021 221.109 16.9811 222.022 21.6261C222.188 22.4141 223.39 22.0823 223.224 21.2943C222.312 16.5664 220.86 11.9629 218.953 7.52535C218.662 6.82031 217.584 7.44241 217.874 8.14744Z" fill="#161616"/>
<path d="M202.239 31.0404C203.857 33.197 205.267 35.4365 206.511 37.8419C206.884 38.547 207.962 37.9249 207.589 37.2198C206.345 34.8144 204.935 32.5749 203.317 30.4183C202.861 29.7962 201.783 30.4183 202.239 31.0404Z" fill="#161616"/>
<path d="M207.589 37.759C212.98 32.7823 218.04 27.5567 222.851 22.0409C223.39 21.4188 222.478 20.5479 221.98 21.1699C217.169 26.6858 212.11 31.9529 206.718 36.8881C206.137 37.4273 207.008 38.2982 207.589 37.759Z" fill="#161616"/>
<path d="M181.544 21.2943C184.199 24.7366 186.853 28.2203 189.507 31.6625C190.005 32.2846 191.083 31.6625 190.585 31.0404C187.931 27.5982 185.277 24.1145 182.623 20.6722C182.125 20.0502 181.047 20.6308 181.544 21.2943Z" fill="#161616"/>
<path d="M189.756 32.1188C195.313 34.2339 200.87 36.349 206.428 38.4641C207.174 38.7544 207.506 37.5517 206.76 37.2614C201.202 35.1463 195.645 33.0312 190.088 30.9161C189.341 30.6258 189.009 31.8285 189.756 32.1188Z" fill="#161616"/>
<path d="M34.1501 4.45627C39.4172 18.3911 44.7257 32.3259 49.9927 46.3022C53.9326 47.422 57.914 48.5003 61.8539 49.6201C64.7985 48.2929 67.743 46.9243 70.6876 45.5972C67.3283 44.1457 63.969 42.6941 60.6097 41.2426C55.2183 27.1418 49.8268 12.9996 44.4354 -1.10107C42.9424 -0.437511 41.3664 0.308998 39.749 1.17993C37.6339 2.21674 35.8091 3.37798 34.1501 4.45627Z" fill="#E34B94"/>
<path d="M72.098 -3.75525C75.4987 2.38271 79.1898 10.9676 80.7243 21.6261C81.2219 25.1098 81.4293 28.4276 81.4293 31.4136C74.8352 36.4733 66.7894 41.8233 57.1263 46.8C51.7349 49.5787 46.5093 51.9011 41.657 53.8089C44.3527 53.8089 47.0484 53.8089 49.7442 53.8089C55.5089 51.4035 61.8957 48.3759 68.6557 44.519C75.9964 40.3302 82.3002 35.9756 87.5673 31.9113C86.5719 26.9346 85.4936 21.8334 84.3324 16.6908C83.0467 11.009 81.7196 5.49317 80.3925 0.0602405C79.646 -0.686268 78.4018 -1.72309 76.6185 -2.55254C74.7937 -3.38199 73.1762 -3.6723 72.098 -3.75525Z" fill="#E34B94"/>
<path d="M39.1685 1.30452C38.2561 0.558015 39.4588 -3.92104 42.7766 -5.33111C45.3064 -6.4094 48.5828 -5.53847 50.8638 -3.05011C49.5781 -2.67686 47.6289 -2.09624 45.3064 -1.14237C41.1592 0.558015 39.7906 1.8022 39.1685 1.30452Z" fill="#E34B94"/>
<path d="M23.6992 -14.082C25.7728 -14.4137 26.934 -10.7227 31.2472 -7.07308C35.1042 -3.83821 39.4173 -2.38666 42.7766 -1.64015C41.3666 -0.561862 38.7123 1.22146 35.0212 1.67766C29.6712 2.34123 22.372 0.309065 20.6302 -4.79208C19.3445 -8.64904 21.3767 -13.7502 23.6992 -14.082Z" fill="#E34B94"/>
<path d="M204.354 1.63623C199.004 8.76954 193.613 15.9028 188.263 23.0361C190.171 26.5199 192.078 30.0036 194.028 33.4873C195.687 34.1508 197.345 34.8559 199.004 35.5194C197.802 32.6163 196.599 29.6718 195.355 26.7687C200.124 18.9304 204.935 11.1335 209.704 3.29514C207.921 2.75599 206.138 2.21685 204.354 1.63623Z" fill="#E34B94"/>
<path d="M220.611 13.1656C215.137 19.2621 209.621 25.3172 204.147 31.4136C197.76 29.5474 191.373 27.6811 184.986 25.8148C186.065 27.1834 187.143 28.552 188.221 29.9206C194.235 31.9113 200.207 33.902 206.22 35.8927C211.404 30.045 216.547 24.2389 221.731 18.3912C221.399 16.6494 221.026 14.9075 220.611 13.1656Z" fill="#E34B94"/>
<path d="M209.704 3.1294C209.912 2.25847 212.981 1.38755 215.054 2.96351C216.381 3.95886 217.169 5.90807 216.589 6.48869C215.511 7.56698 209.414 4.45653 209.704 3.1294Z" fill="#E34B94"/>
<path d="M206.469 -10.2664C207.382 -10.7641 209.207 -9.18811 209.704 -8.77339C210.202 -8.35866 211.944 -6.7827 213.146 -2.26217C213.769 0.0188293 214.681 3.41959 213.727 3.87579C212.649 4.41494 209.372 1.01417 207.589 -2.63542C206.221 -5.53851 205.267 -9.60284 206.469 -10.2664Z" fill="#E34B94"/>
<path d="M230.524 4.45639C230.606 3.46105 228.367 2.67307 227.745 2.4657C227.164 2.25834 224.966 1.5533 220.28 2.59012C217.916 3.12927 214.432 3.91725 214.391 4.91259C214.349 6.07383 218.911 7.19359 223.017 6.98623C226.293 6.82034 230.399 5.74205 230.524 4.45639Z" fill="#E34B94"/>
<path opacity="0.09" d="M35.8506 52.6063C38.2975 51.7354 41.9056 50.4497 46.2188 48.6249C53.5594 45.556 58.7435 43.3994 64.5082 39.5009C67.3698 37.5517 71.2268 34.5657 75.3326 30.2111C77.3648 26.1467 79.8531 20.0917 80.807 12.3778C81.3876 7.69138 81.3047 3.5441 80.9729 0.184814C82.4659 1.05574 83.9175 1.92667 85.4105 2.75612C86.9035 6.65456 88.438 11.4239 89.5163 16.9398C90.5946 22.2898 91.0508 27.1421 91.1752 31.2479C86.6961 35.1463 82.7148 38.0494 79.7287 40.0816C65.3377 49.9106 55.4257 52.2331 53.2277 52.7307C49.8269 53.4773 47.2141 53.6017 46.0529 53.6431C41.6982 53.809 38.1731 53.1455 35.8506 52.6063Z" fill="#353535"/>
<path opacity="0.09" d="M182.249 20.299C184.904 24.073 187.516 27.847 190.171 31.5796C195.686 33.7361 201.244 35.8513 206.76 38.0078C212.027 32.2846 217.294 26.6028 222.561 20.8796C221.275 16.4835 219.948 12.0874 218.662 7.69128C213.271 14.9905 207.879 22.2897 202.488 29.5889C195.728 26.5199 188.968 23.4094 182.249 20.299Z" fill="#353535"/>
<path d="M184.613 63.9515C183.659 64.0345 182.996 61.2143 181.959 61.2558C181.129 61.2973 180.549 63.1635 180.507 63.4124C180.01 65.1128 180.258 66.8546 181.959 71.4166C182.456 72.7437 183.12 74.4441 183.991 76.3933C183.535 79.6282 182.705 84.1073 181.212 89.3743C179.346 95.8855 176.194 106.585 167.858 117.617C165.287 121.018 161.43 125.539 155.831 130.183C153.965 134.663 153.716 138.395 153.799 140.718C153.84 142.086 154.006 148.266 156.287 148.846C157.822 149.219 159.646 146.98 160.559 145.86C169.849 134.123 174.535 128.276 176.401 124.875C180.756 117.078 184.281 110.733 187.267 101.194C189.465 94.2266 190.502 88.1301 191.083 83.6511C192.037 82.0751 193.364 79.8356 194.898 77.0984C199.087 69.6333 200.58 66.274 201.492 62.5415C202.446 58.6845 202.612 55.3667 201.658 54.9934C200.953 54.7446 200.082 56.0302 199.294 55.6985C198.133 55.2008 199.377 51.7585 198.133 51.012C197.677 50.7217 196.765 50.7632 194.898 52.0074C193.613 49.3117 192.783 48.814 192.244 48.8555C191.124 49.0213 190.585 52.0903 190.336 55.574C190.005 53.8737 189.175 50.307 188.138 50.307C187.267 50.307 186.355 52.9198 186.106 54.9934C185.733 57.855 186.562 59.9287 185.525 62.8318C185.318 63.2465 185.028 63.8686 184.613 63.9515Z" fill="white"/>
<path d="M183.161 75.8542C183.037 81.3286 181.295 86.5956 179.636 91.7797C178.019 96.6735 176.194 101.526 173.955 106.171C169.807 114.797 164.208 122.677 156.868 128.856C156.246 129.354 157.158 130.266 157.739 129.727C165.37 123.34 171.093 115.087 175.323 106.129C177.521 101.484 179.346 96.6735 180.922 91.7797C182.581 86.6371 184.281 81.3701 184.364 75.8957C184.447 75.0662 183.203 75.0662 183.161 75.8542Z" fill="#161616"/>
<path d="M190.544 83.0705C189.424 96.1759 183.701 108.493 177.894 120.106C172.586 130.723 166.158 141.049 156.578 148.307C155.955 148.805 156.578 149.883 157.2 149.385C166.987 141.962 173.581 131.552 178.973 120.728C184.903 108.908 190.627 96.3832 191.788 83.0705C191.829 82.2825 190.585 82.2825 190.544 83.0705Z" fill="#161616"/>
<path d="M184.198 75.1907C182.788 72.1632 181.461 68.638 181.254 65.2787C181.212 64.8225 181.129 62.8733 181.461 62.6245C182.498 61.9194 182.788 63.1221 183.037 63.6198C183.493 64.4907 183.825 65.1128 184.696 65.6105C185.401 65.9838 186.023 64.9469 185.318 64.5322C183.866 63.7028 183.991 61.4218 182.332 60.7997C180.922 60.2605 180.424 61.4218 180.134 62.6245C179.139 66.8962 181.295 71.9973 183.037 75.8128C183.493 76.5593 184.53 75.8957 184.198 75.1907Z" fill="#161616"/>
<path d="M185.608 65.2372C187.018 62.0023 186.687 58.6845 186.811 55.2423C186.853 54.4543 186.687 52.6295 187.143 52.0074C187.972 50.9706 188.594 53.1686 188.802 53.8737C189.382 56.1132 189.507 58.3527 189.341 60.6337C189.258 61.4217 190.502 61.4217 190.585 60.6337C190.709 59.0578 190.544 48.0675 187.018 49.8508C185.567 50.5973 185.65 53.5419 185.608 54.8275C185.484 58.1039 185.94 61.4632 184.572 64.5736C184.24 65.3201 185.318 65.9837 185.608 65.2372Z" fill="#161616"/>
<path d="M190.71 60.7167C190.958 59.2236 191.166 57.7306 191.29 56.1961C191.415 54.4957 191.166 52.588 191.705 50.9706C192.161 49.4775 192.41 49.1872 193.032 50.5144C193.488 51.4682 193.654 52.4636 193.779 53.4589C193.986 55.3252 194.152 57.5233 193.571 59.3481C193.322 60.136 194.525 60.4263 194.774 59.6798C195.437 57.4818 195.272 54.7861 194.898 52.5465C194.691 51.3438 194.027 48.1919 192.41 48.1919C191 48.1919 190.419 50.5558 190.295 51.5512C189.88 54.4543 189.963 57.4403 189.507 60.3434C189.382 61.1729 190.585 61.5046 190.71 60.7167Z" fill="#161616"/>
<path d="M195.23 59.6384C195.396 58.3527 195.396 57.0256 195.396 55.74C195.437 54.6202 195.355 51.6342 196.765 51.7586C197.801 51.8415 197.718 52.7125 197.801 53.6249C197.843 54.2469 197.843 54.9105 197.843 55.5326C197.843 57.0671 197.76 58.5601 197.47 60.0946C197.304 60.8826 198.506 61.2144 198.672 60.4264C199.087 58.3942 200.497 50.0582 196.765 49.9753C193.322 49.8923 194.235 57.7721 193.986 59.6799C193.903 60.4264 195.147 60.4264 195.23 59.6384Z" fill="#161616"/>
<path d="M199.668 55.9888C200.165 55.9474 200.621 55.9059 201.119 55.8644C201.202 56.2377 201.285 56.6109 201.326 57.0256C201.409 57.7722 201.451 58.4772 201.451 59.2237C201.409 60.5508 201.202 61.9194 200.829 63.2051C200.165 65.7349 199.045 68.1403 197.801 70.4628C195.52 74.776 193.073 79.0477 190.709 83.3193C190.336 84.0244 191.415 84.6465 191.788 83.9414C193.778 80.3333 195.811 76.7252 197.801 73.1171C199.668 69.7578 201.534 66.2326 202.322 62.4171C202.737 60.3435 203.607 55.5741 201.451 54.1226C200.082 53.1687 198.299 54.4543 198.465 56.0303C198.506 56.7768 199.751 56.7768 199.668 55.9888Z" fill="#161616"/>
<path opacity="0.08" d="M197.553 51.3024C196.93 51.3438 196.765 53.9152 196.35 56.9841C195.686 62.3756 194.94 68.4306 192.368 73.4903C191.539 75.1492 190.046 77.5961 187.35 80.2503C186.936 83.1949 186.148 87.4251 184.82 92.4018C182.498 101.111 179.097 113.47 169.475 125.041C166.863 128.151 162.84 132.464 156.909 136.653C156.743 140.718 156.577 144.74 156.37 148.805C158.941 146.856 162.674 143.745 166.531 139.307C171.591 133.46 174.867 126.824 181.212 113.802C186.272 103.392 187.641 99.3692 188.47 96.4662C190.046 91.1576 190.834 86.5542 191.249 83.2364C194.069 78.7988 196.142 74.8589 197.594 71.7484C200.124 66.357 204.188 57.6477 201.7 55.4911C200.995 54.9105 199.958 54.952 199.17 55.0764C198.797 53.3345 198.133 51.2609 197.553 51.3024Z" fill="#353535"/>
<path opacity="0.1" d="M195.977 75.6053C193.778 77.9278 191.58 80.2918 189.382 82.6142C189.175 84.6049 188.802 87.5495 187.931 91.0747C186.272 97.7103 183.867 102.355 182.913 104.304C180.466 109.198 177.272 116.663 174.203 127.819C175.572 125.456 182.83 112.848 186.894 102.065C188.429 97.9177 189.258 95.7611 189.922 92.4018C190.751 88.3789 190.544 86.5127 191.622 83.2778C192.825 79.7526 194.649 77.1813 195.977 75.6053Z" fill="#353535"/>
<path d="M80.7654 54.869C79.4382 55.2423 79.3968 58.8504 79.6041 60.8826C79.9359 64.4907 81.346 67.1864 81.9681 68.3477C84.6223 73.2414 87.1936 77.8449 89.8064 82.2825C90.1382 85.2685 90.7188 89.3329 91.8801 94.0607C93.9122 102.355 96.525 107.996 100.133 115.751C105.856 127.985 109.257 134.994 116.515 142.459C119.252 145.238 121.74 147.312 123.441 148.639C124.063 147.934 127.878 143.538 127.132 137.275C126.551 132.174 123.316 129.064 122.404 128.234C120.413 126.575 117.386 123.88 114.275 120.064C107.723 111.935 104.985 103.807 101.004 91.6139C99.9258 88.296 98.4742 83.6096 97.0227 77.8449C97.8107 75.2736 98.4742 73.2414 98.9304 71.9558C100.299 68.0159 101.17 66.0252 100.548 63.4954C100.382 62.8318 100.05 61.5876 99.2207 61.3388C98.2669 61.0899 96.8153 62.2512 95.6955 64.3663C95.0735 60.9655 94.7831 58.1454 94.6587 56.0303C94.4928 52.9613 94.5758 50.7218 93.9122 50.5559C93.2072 50.39 92.1289 52.8783 92.0045 53.1272C90.9677 55.4496 90.9677 57.6477 91.1335 59.0163C91.4653 51.3024 90.5944 49.3532 89.6405 49.1043C88.8525 48.897 87.8572 49.9338 87.5669 50.2656C85.6177 52.3392 86.613 55.3667 86.696 55.5741C85.825 50.9706 84.9126 50.6803 84.6223 50.6803C83.8758 50.6388 83.1293 52.2977 82.839 53.2516C82.5072 54.4128 82.7146 55.4496 82.839 55.9888C82.1754 55.3667 81.3875 54.7031 80.7654 54.869Z" fill="white"/>
<path d="M96.6495 75.9372C96.7739 81.2457 98.3084 86.3883 99.8843 91.448C101.46 96.4662 103.244 101.401 105.442 106.171C109.547 115.087 115.105 123.341 122.528 129.769C123.151 130.308 124.021 129.396 123.399 128.898C116.225 122.677 110.833 114.797 106.81 106.212C104.612 101.567 102.829 96.715 101.294 91.8213C99.6355 86.6372 97.9766 81.3701 97.8522 75.8957C97.8522 75.1492 96.608 75.1492 96.6495 75.9372Z" fill="#161616"/>
<path d="M89.5162 83.1949C90.5945 96.3003 96.0689 108.618 101.709 120.354C106.935 131.262 113.363 141.879 122.985 149.427C123.607 149.924 124.478 149.054 123.856 148.556C114.441 141.215 108.22 130.93 103.036 120.354C97.3545 108.659 91.7972 96.3003 90.7189 83.2364C90.6774 82.4069 89.4332 82.4069 89.5162 83.1949Z" fill="#161616"/>
<path d="M97.9349 75.9372C99.6768 72.0388 101.875 66.7717 100.672 62.4171C100.382 61.3388 99.8427 60.4679 98.5985 60.9656C96.981 61.5877 97.1469 63.8687 95.6954 64.6981C94.9904 65.1128 95.6124 66.1911 96.3175 65.7764C96.981 65.4031 97.3543 64.9055 97.7276 64.2419C97.8934 63.9101 98.0593 63.1636 98.3496 62.9148C99.9671 61.7121 99.6768 64.3249 99.6768 65.0714C99.5938 68.5551 98.2252 72.2047 96.8152 75.3566C96.5248 76.0202 97.6031 76.6423 97.9349 75.9372Z" fill="#161616"/>
<path d="M96.5249 64.6981C95.2392 61.7121 95.6125 58.4772 95.5296 55.3253C95.4881 53.9982 95.654 50.7633 94.1195 49.9753C90.6772 48.192 90.4699 59.2237 90.5943 60.7582C90.6772 61.5462 91.9214 61.5462 91.8385 60.7582C91.6726 58.6016 91.7555 56.445 92.2532 54.3299C92.3776 53.7908 92.8338 51.3024 93.8706 51.7586C94.3268 51.966 94.2854 54.8276 94.2854 55.3253C94.3683 58.7675 94.078 62.0853 95.4466 65.3202C95.7784 66.0667 96.8567 65.4446 96.5249 64.6981Z" fill="#161616"/>
<path d="M91.7141 60.4679C91.2579 57.5648 91.3409 54.6202 90.9261 51.7586C90.8017 50.7218 90.2626 48.3578 88.811 48.3163C87.318 48.2749 86.6545 51.2609 86.4471 52.3392C85.9909 54.7031 85.825 57.4818 86.4886 59.8043C86.6959 60.5508 87.8986 60.2605 87.6913 59.4725C87.1936 57.8136 87.318 55.9059 87.4424 54.164C87.5254 53.1272 87.6913 52.0489 88.0645 51.0535C88.6866 49.4776 88.9355 49.1458 89.5161 51.0535C89.9723 52.588 89.7649 54.3714 89.8893 55.9473C90.0137 57.5648 90.2211 59.1822 90.5114 60.7996C90.6358 61.5876 91.8385 61.2558 91.7141 60.4679Z" fill="#161616"/>
<path d="M87.3594 59.7213C87.1106 57.855 88.023 49.8923 84.6222 50.0167C80.9726 50.1411 82.3827 58.4771 82.756 60.4678C82.9219 61.2558 84.1246 60.924 83.9587 60.136C83.6684 58.643 83.5854 57.1085 83.5854 55.574C83.5854 54.4543 83.2536 51.9244 84.5808 51.8C85.9494 51.6756 85.8664 54.7031 85.9079 55.7814C85.9494 57.1085 85.9079 58.3942 86.0738 59.6798C86.1982 60.5093 87.4839 60.5508 87.3594 59.7213Z" fill="#161616"/>
<path d="M83.0879 56.0716C83.2537 54.5372 81.5534 53.21 80.1848 54.1639C78.1526 55.574 78.8991 60.0945 79.2724 62.0852C79.9359 65.7763 81.5948 69.177 83.3782 72.4948C85.4103 76.3518 87.5254 80.1673 89.5576 83.9828C89.9308 84.6878 91.0091 84.0657 90.6359 83.3607C88.2719 78.9646 85.825 74.6099 83.5441 70.1724C82.4243 67.9743 81.3875 65.6933 80.8069 63.2464C80.4751 61.9608 80.2677 60.6336 80.2262 59.265C80.2262 58.7674 80.2262 58.2697 80.2677 57.7306C80.2677 57.1914 80.3507 56.6523 80.4751 56.1546C80.5165 55.5325 81.0142 55.491 81.8851 56.0302C81.7607 56.8596 83.0049 56.8596 83.0879 56.0716Z" fill="#161616"/>
<path opacity="0.09" d="M84.9541 51.0536C86.1154 51.4683 85.2859 56.445 85.0785 58.3113C84.6223 62.583 85.5762 69.0527 92.3363 78.2597C94.1196 87.1348 97.5204 99.2449 104.488 112.35C110.377 123.465 117.054 131.925 122.611 137.98C123.026 141.63 123.399 145.28 123.814 148.971C121.243 147.187 117.676 144.367 114.151 140.261C111.082 136.653 109.257 133.501 106.603 128.483C99.7599 115.502 96.3176 108.991 93.9122 101.111C92.5851 96.798 91.0091 90.5771 90.0967 82.8631C86.8204 78.6329 84.5809 74.7345 83.0879 71.7484C80.1848 65.9837 79.4383 62.3341 79.5212 59.0578C79.6041 55.3252 80.2677 54.8276 80.558 54.7032C81.1801 54.4543 82.0096 54.952 82.5487 55.3667C82.5072 55.1594 82.0925 53.2931 83.3367 51.9245C83.5441 51.7586 84.3735 50.8462 84.9541 51.0536Z" fill="#353535"/>
<path opacity="0.09" d="M81.6363 65.8592C82.051 65.6519 84.5808 69.2185 86.4056 72.2045C90.6773 79.2134 92.4192 85.4758 92.8754 87.0103C95.6126 96.5076 99.1377 104.553 106.23 120.603C108.386 125.456 111.663 132.506 116.266 140.842C114.939 139.598 113.031 137.731 110.999 135.285C109.216 133.169 103.368 125.995 97.2715 109.53C94.9075 103.102 92.1289 94.4339 90.1382 83.7754C88.7281 81.37 86.7789 77.9278 84.7052 73.6146C83.7928 71.6654 81.1801 66.1081 81.6363 65.8592Z" fill="#353535"/>
<path d="M140.528 124.626C139.076 124.502 136.505 124.294 133.145 124.626C129.247 125.041 125.763 125.373 123.15 127.654C121.201 129.354 120.621 131.469 119.542 135.658C118.92 138.105 118.091 141.423 118.174 145.902C118.34 154.196 121.492 155.274 123.15 165.311C123.98 170.163 123.897 173.937 123.855 178.458C123.773 184.471 123.15 189.572 122.487 193.512C124.27 194.922 127.007 196.83 130.74 198.323C133.021 199.235 139.491 201.682 147.785 200.231C156.495 198.738 161.844 193.844 163.628 192.061C160.725 184.222 160.434 177.919 160.683 173.647C161.015 168.463 162.093 167.343 163.628 156.187C164.789 147.892 164.748 144.45 164.665 142.584C164.374 135.119 164.208 131.345 161.72 128.815C159.273 126.326 153.011 125.746 140.528 124.626Z" fill="white"/>
<path d="M138.454 124.336C135.385 124.128 132.316 124.294 129.289 124.833C126.717 125.29 124.063 125.746 122.363 127.861C119.252 131.676 117.925 136.943 117.676 141.754C117.054 154.03 123.151 165.228 125.224 177.089C125.349 177.877 126.551 177.545 126.427 176.757C124.561 166.057 119.418 156.062 118.92 145.114C118.713 140.095 119.459 134.953 122.031 130.557C122.902 129.064 123.856 127.612 125.556 126.99C126.717 126.575 128.003 126.326 129.206 126.078C132.233 125.497 135.344 125.373 138.413 125.538C139.242 125.621 139.242 124.377 138.454 124.336Z" fill="#161616"/>
<path d="M143.555 125.456C149.113 125.124 155.956 125.787 160.683 129.105C163.545 131.137 163.669 134.538 163.96 137.732C164.25 140.593 164.375 143.455 164.167 146.358C163.338 157.68 158.776 168.421 158.817 179.868C158.817 180.656 160.061 180.656 160.061 179.868C160.02 166.97 165.909 154.818 165.494 141.879C165.328 136.944 165.494 130.598 160.766 127.695C155.831 124.668 149.237 123.88 143.555 124.211C142.726 124.253 142.726 125.497 143.555 125.456Z" fill="#161616"/>
<path opacity="0.11" d="M153.426 125.165C154.711 128.276 156.37 132.962 157.2 138.81C158.817 150.546 156.08 159.546 152.804 169.956C150.357 177.711 146.251 188.411 139.035 200.397C141.316 200.604 144.136 200.604 147.288 200.023C155.499 198.53 160.974 194.051 163.421 191.77C163.13 189.697 162.633 186.462 161.928 182.563C160.808 176.467 160.435 176.011 160.31 173.813C160.144 171.117 160.6 171.449 163.047 160.044C164.001 155.565 164.706 151.5 165.121 146.192C165.162 145.736 165.162 145.279 165.204 144.823C165.411 137.98 165.494 133.791 162.591 130.225C159.812 126.824 155.79 125.621 153.426 125.165Z" fill="#353535"/>
<path opacity="0.08" d="M165.411 145.031C165.121 144.948 163.669 147.229 160.269 156.311C156.536 166.306 151.933 180.697 148.366 199.318C150.191 199.07 152.721 198.53 155.499 197.286C159.232 195.586 161.72 193.305 163.13 191.77C161.886 187.416 160.476 180.946 160.517 173.066C160.559 157.555 166.075 145.238 165.411 145.031Z" fill="#353535"/>
<path d="M125.556 94.434C123.938 97.7518 124.395 101.111 124.768 102.687C124.602 102.687 122.653 102.604 121.616 104.014C120.372 105.673 121.533 107.747 121.74 108.079C122.031 108.576 122.404 109.281 123.192 109.489C124.436 109.862 125.597 108.784 125.68 108.701C126.302 110.277 127.339 112.267 128.957 114.299C131.445 117.451 134.224 119.318 136.09 120.354C136.173 122.345 136.256 124.294 136.297 126.285C136.754 126.7 137.707 127.446 139.117 127.695C141.896 128.234 144.053 126.409 144.302 126.161C144.26 123.672 144.219 121.184 144.177 118.696C145.255 117.866 146.5 116.705 147.702 115.17C150.108 112.018 150.979 108.825 151.31 106.917C151.767 107.083 152.513 107.249 153.467 107.249C154.379 107.249 155.541 107.208 156.08 106.461C156.66 105.632 156.038 104.429 155.416 103.143C154.794 101.941 154.338 101.775 154.172 101.733C153.467 101.526 152.803 101.941 152.596 102.065C152.762 100.738 152.845 98.2495 151.808 95.4708C151.518 94.6828 149.859 90.4526 145.836 88.2131C139.242 84.6464 128.874 87.6739 125.556 94.434Z" fill="white"/>
<path d="M124.809 94.517C122.362 105.258 126.344 119.11 138.537 121.433C139.325 121.599 139.657 120.396 138.869 120.23C127.339 118.032 123.731 104.968 126.012 94.8487C126.178 94.0608 124.975 93.729 124.809 94.517Z" fill="#161616"/>
<path d="M138.703 121.391C140.403 121.889 142.726 120.272 144.094 119.359C145.919 118.156 147.536 116.622 148.822 114.839C152.016 110.567 153.218 105.175 152.721 99.9499C152.638 99.1619 151.393 99.1619 151.476 99.9499C151.933 104.47 151.103 109.074 148.656 112.931C147.619 114.548 146.334 116 144.841 117.244C143.638 118.239 140.693 120.645 139.035 120.189C138.247 119.981 137.915 121.184 138.703 121.391Z" fill="#161616"/>
<path d="M135.053 120.396C135.675 122.096 135.841 123.88 135.551 125.663C135.426 126.451 136.629 126.783 136.753 125.995C137.085 123.963 136.961 122.013 136.256 120.064C136.007 119.318 134.804 119.608 135.053 120.396Z" fill="#161616"/>
<path d="M143.638 118.986C143.431 121.101 143.596 123.175 144.136 125.248C144.343 126.036 145.546 125.704 145.338 124.916C144.841 122.967 144.716 120.976 144.882 118.986C144.965 118.198 143.721 118.198 143.638 118.986Z" fill="#161616"/>
<path d="M135.592 126.451C138.454 129.644 144.426 129.561 145.463 124.709C145.629 123.921 144.426 123.589 144.26 124.377C143.389 128.317 138.744 128.068 136.463 125.58C135.924 124.999 135.053 125.87 135.592 126.451Z" fill="#161616"/>
<path d="M135.841 121.225C138.247 123.423 142.021 122.926 143.555 119.981C143.928 119.276 142.85 118.654 142.477 119.359C141.316 121.557 138.537 122.055 136.712 120.354C136.131 119.815 135.261 120.686 135.841 121.225Z" fill="#161616"/>
<path d="M138.33 122.138C138.91 122.096 139.449 122.138 139.988 122.304C140.776 122.511 141.108 121.308 140.32 121.101C139.657 120.935 138.993 120.852 138.33 120.894C137.542 120.935 137.542 122.179 138.33 122.138Z" fill="#161616"/>
<path d="M124.934 108.825C123.233 110.194 121.74 108.286 121.574 106.668C121.367 105.092 122.736 103.143 124.478 104.222C125.141 104.636 125.763 103.558 125.1 103.143C122.528 101.526 120.04 104.263 120.33 106.834C120.662 109.571 123.358 111.687 125.805 109.696C126.427 109.198 125.556 108.327 124.934 108.825Z" fill="#161616"/>
<path d="M152.928 102.77C154.255 101.526 155.541 103.89 155.499 104.968C155.499 105.632 155.167 106.295 154.587 106.668C154.13 106.959 153.052 107.332 152.679 106.751C152.264 106.088 151.186 106.71 151.601 107.373C152.223 108.41 153.633 108.452 154.67 108.037C155.872 107.539 156.66 106.42 156.702 105.134C156.826 102.853 154.213 99.8255 152.015 101.899C151.476 102.438 152.347 103.351 152.928 102.77Z" fill="#161616"/>
<path d="M136.256 94.3926C136.588 97.2957 136.422 100.033 136.131 102.936C135.966 104.885 137.002 105.715 138.537 106.959C139.159 107.457 140.03 106.586 139.408 106.088C138.329 105.176 137.376 104.553 137.417 102.895C137.417 102.107 137.624 101.236 137.707 100.448C137.873 98.4155 137.79 96.3833 137.541 94.3926C137.417 93.6046 136.173 93.6046 136.256 94.3926Z" fill="#161616"/>
<path d="M129.33 100.282C129.288 99.3692 130.616 98.7885 131.362 98.83C132.233 98.83 132.689 99.535 133.145 100.199C133.602 100.862 134.68 100.24 134.224 99.5765C133.394 98.3738 132.44 97.3785 130.864 97.6273C129.537 97.8761 128.003 98.83 128.044 100.323C128.086 101.111 129.33 101.111 129.33 100.282Z" fill="#161616"/>
<path d="M143.555 99.1619C144.675 97.0468 147.702 97.3785 148.241 99.7425C148.407 100.53 149.61 100.199 149.444 99.4107C148.698 96.0099 144.094 95.4708 142.477 98.4983C142.145 99.2033 143.182 99.8669 143.555 99.1619Z" fill="#161616"/>
<path d="M128.127 95.8855C128.832 94.8072 130.035 94.1022 131.32 93.9363C132.108 93.8533 132.108 92.6091 131.32 92.6921C129.537 92.8994 128.044 93.7704 127.049 95.2634C126.593 95.9269 127.671 96.549 128.127 95.8855Z" fill="#161616"/>
<path d="M143.555 93.563C145.048 93.4801 146.417 93.9363 147.495 94.9316C148.076 95.4708 148.988 94.5999 148.366 94.0607C147.039 92.858 145.338 92.2359 143.514 92.3189C142.726 92.3603 142.726 93.6045 143.555 93.563Z" fill="#161616"/>
<path d="M129.662 103.475C129.662 103.434 129.662 103.434 129.662 103.392C129.662 103.06 129.371 102.77 129.04 102.77C128.708 102.77 128.417 103.06 128.417 103.392C128.417 103.434 128.417 103.434 128.417 103.475C128.417 103.807 128.708 104.097 129.04 104.097C129.371 104.097 129.662 103.848 129.662 103.475Z" fill="#161616"/>
<path d="M131.569 103.185C131.611 103.185 131.652 103.185 131.652 103.185C131.984 103.185 132.274 102.894 132.274 102.563C132.274 102.231 131.984 101.941 131.652 101.941C131.611 101.941 131.569 101.941 131.569 101.941C131.238 101.941 130.947 102.231 130.947 102.563C130.989 102.894 131.238 103.185 131.569 103.185Z" fill="#161616"/>
<path d="M131.486 105.922C131.528 105.922 131.569 105.922 131.569 105.922C131.901 105.922 132.191 105.632 132.191 105.3C132.191 104.968 131.901 104.678 131.569 104.678C131.528 104.678 131.486 104.678 131.486 104.678C131.155 104.678 130.864 104.968 130.864 105.3C130.864 105.632 131.155 105.922 131.486 105.922Z" fill="#161616"/>
<path d="M144.924 102.272C144.965 102.272 145.007 102.272 145.007 102.272C145.338 102.272 145.629 101.982 145.629 101.65C145.629 101.318 145.338 101.028 145.007 101.028C144.965 101.028 144.924 101.028 144.924 101.028C144.592 101.028 144.302 101.318 144.302 101.65C144.343 101.982 144.592 102.272 144.924 102.272Z" fill="#161616"/>
<path d="M148.573 102.189C149.361 102.189 149.361 100.945 148.573 100.945C147.785 100.945 147.785 102.189 148.573 102.189Z" fill="#161616"/>
<path d="M147.205 104.18C147.993 104.18 147.993 102.936 147.205 102.936C146.375 102.936 146.375 104.18 147.205 104.18Z" fill="#161616"/>
<path d="M133.477 109.613C136.007 114.175 142.643 113.511 144.26 108.576C144.509 107.83 143.306 107.498 143.057 108.244C141.772 112.226 136.546 112.558 134.555 108.991C134.182 108.286 133.104 108.908 133.477 109.613Z" fill="#161616"/>
<path d="M118.671 99.4523C117.137 101.733 114.939 105.673 114.068 110.94C113.446 114.714 112.368 121.308 116.515 126.534C117.635 127.944 121.74 132.548 127.381 131.801C131.155 131.303 135.178 128.483 135.924 124.543C136.297 122.718 135.883 121.143 135.509 120.23C133.726 119.359 130.533 117.534 128.044 113.968C126.8 112.226 126.054 110.526 125.639 109.198C125.431 109.364 124.768 109.862 123.855 109.82C122.777 109.779 122.114 109.032 121.948 108.825C120.662 107.374 120.787 104.388 122.487 103.392C123.358 102.895 124.353 103.06 124.892 103.185C124.643 101.65 124.395 98.374 126.136 94.9318C127.298 92.6093 129.081 90.9089 133.187 88.3376C136.588 86.2225 138.081 86.3884 138.62 86.4713C140.445 86.8031 141.564 88.2547 142.145 89.0012C144.758 92.319 148.159 96.5907 152.223 101.858C152.389 101.775 153.508 101.236 154.628 101.733C155.416 102.107 155.789 102.812 156.038 103.351C156.246 103.807 156.577 104.47 156.412 105.258C156.246 106.254 155.458 107.166 154.379 107.498C153.052 107.913 151.974 107.208 151.808 107.083C151.476 108.659 150.813 111.023 149.237 113.553C147.619 116.124 145.753 117.825 144.467 118.82C144.302 119.815 144.094 121.64 144.882 123.714C146.126 127.115 149.361 129.271 152.347 129.935C157.946 131.137 162.467 126.949 163.628 125.829C167.609 122.096 170.015 115.834 167.982 109.82C166.448 105.341 163.047 102.895 161.72 102.024C160.103 98.2911 158.444 95.388 157.117 93.3143C153.384 87.4667 150.813 83.5268 146.126 82.0752C143.265 81.2043 140.652 81.5361 138.91 81.9508C136.09 81.3287 133.892 81.5776 132.399 81.9508C125.514 83.6512 120.289 90.5357 118.671 99.4523Z" fill="#E34B94"/>
<path opacity="0.08" d="M147.122 94.8487C146.79 94.9731 147.454 97.1297 147.785 99.2863C147.827 99.5766 148.532 104.927 146.541 110.028C144.302 115.751 139.657 118.82 137.625 119.981C138.91 120.271 140.237 120.562 141.523 120.894C141.896 123.133 142.228 125.414 142.601 127.654C143.431 126.658 144.302 125.663 145.131 124.668C145.504 125.373 146.168 126.409 147.205 127.363C147.536 127.695 149.942 129.852 153.509 130.142C157.49 130.515 160.435 128.359 162.093 127.156C163.213 126.368 166.531 123.88 168.065 119.11C169.724 113.926 168.107 109.571 167.609 108.369C167.07 110.442 165.95 113.553 163.545 116.58C162.964 117.327 157.739 123.838 154.504 122.718C151.725 121.764 150.771 115.212 152.14 106.627C152.223 106.71 152.886 107.498 153.84 107.456C155.043 107.415 155.582 106.212 155.665 106.088C156.246 104.844 155.541 103.475 154.836 102.728C153.923 101.733 152.679 101.567 152.306 101.567C151.767 101.028 150.979 100.199 150.149 99.1204C148.159 96.6735 147.412 94.7657 147.122 94.8487Z" fill="#353535"/>
<path opacity="0.09" d="M137.085 104.056C137.417 103.516 139.242 103.392 139.781 104.512C140.196 105.383 139.657 106.544 139.076 106.668C138.164 106.917 136.629 104.761 137.085 104.056Z" fill="#353535"/>
<path opacity="0.09" d="M127.505 121.599C126.634 123.092 124.892 124.46 123.15 124.294C122.114 124.211 120.952 123.589 116.93 117.161C115.602 115.046 114.566 113.221 113.861 112.018C113.487 113.387 112.99 115.834 113.404 118.778C113.57 119.94 113.985 121.93 115.105 124.087C115.81 125.455 117.469 128.483 120.994 130.391C122.031 130.971 123.855 131.925 126.302 131.925C130.408 131.884 133.062 129.147 133.602 128.566C134.555 127.612 135.924 126.161 136.131 123.88C136.339 121.681 135.302 119.981 135.053 119.649C133.809 117.742 132.482 117.949 130.367 116.124C127.671 113.802 126.924 110.94 126.593 111.064C126.095 111.355 129.869 117.534 127.505 121.599Z" fill="#353535"/>
<path opacity="0.13" d="M151.974 104.139C151.725 104.056 150.979 106.668 148.822 110.194C145.753 115.212 141.979 118.488 139.242 120.479C141.15 119.94 144.55 118.696 147.371 115.627C151.85 110.816 152.347 104.263 151.974 104.139Z" fill="#353535"/>
</g>
<defs>
<filter id="filter0_d_801_4108" x="-83" y="-79" width="462" height="328" filterUnits="userSpaceOnUse" color-interpolation-filters="sRGB">
<feFlood flood-opacity="0" result="BackgroundImageFix"/>
<feColorMatrix in="SourceAlpha" type="matrix" values="0 0 0 0 0 0 0 0 0 0 0 0 0 0 0 0 0 0 127 0" result="hardAlpha"/>
<feOffset dy="4"/>
<feGaussianBlur stdDeviation="41.5"/>
<feComposite in2="hardAlpha" operator="out"/>
<feColorMatrix type="matrix" values="0 0 0 0 0 0 0 0 0 0 0 0 0 0 0 0 0 0 0.05 0"/>
<feBlend mode="normal" in2="BackgroundImageFix" result="effect1_dropShadow_801_4108"/>
<feBlend mode="normal" in="SourceGraphic" in2="effect1_dropShadow_801_4108" result="shape"/>
</filter>
<clipPath id="clip0_801_4108">
<rect width="296" height="162" rx="18" fill="white"/>
</clipPath>
</defs>
</svg>
