<svg width="183" height="200" viewBox="0 0 183 200" fill="none" xmlns="http://www.w3.org/2000/svg">
<ellipse opacity="0.1" cx="75.135" cy="87.1895" rx="65.4987" ry="72.34" transform="rotate(-8.18914 75.135 87.1895)" fill="#552580"/>
<ellipse opacity="0.1" cx="97.4323" cy="120.51" rx="65.4987" ry="52.4894" transform="rotate(-109.976 97.4323 120.51)" fill="#552580"/>
<ellipse cx="94.5855" cy="92.0023" rx="65.4987" ry="72.34" transform="rotate(22.6816 94.5855 92.0023)" fill="#552580"/>
<path d="M100.976 78.0414C101.508 78.3435 102.138 78.4229 102.728 78.2623C103.319 78.1016 103.822 77.714 104.128 77.1839C104.381 76.7374 104.775 76.3875 105.248 76.1891C105.721 75.9907 106.247 75.955 106.743 76.0875C107.238 76.2201 107.676 76.5134 107.987 76.9215C108.298 77.3297 108.465 77.8295 108.461 78.3426C108.461 78.9573 108.217 79.5468 107.783 79.9814C107.348 80.416 106.758 80.6602 106.144 80.6602C105.529 80.6602 104.94 80.9044 104.505 81.339C104.07 81.7736 103.826 82.3631 103.826 82.9777C103.826 83.5924 104.07 84.1819 104.505 84.6165C104.94 85.0511 105.529 85.2953 106.144 85.2953C107.364 85.2945 108.563 84.9726 109.619 84.3619C110.676 83.7511 111.553 82.8731 112.162 81.8161C112.772 80.759 113.093 79.5601 113.092 78.3399C113.092 77.1196 112.77 75.921 112.159 74.8644C111.549 73.8078 110.671 72.9305 109.614 72.3206C108.557 71.7108 107.359 71.3898 106.138 71.39C104.918 71.3902 103.719 71.7115 102.663 72.3217C101.606 72.932 100.728 73.8095 100.118 74.8663C99.965 75.1308 99.8656 75.423 99.8258 75.7261C99.7859 76.0292 99.8065 76.3372 99.8862 76.6323C99.9659 76.9274 100.103 77.2038 100.29 77.4457C100.477 77.6875 100.71 77.8899 100.976 78.0414ZM110.941 94.5655C110.333 94.4865 109.718 94.652 109.231 95.0256C108.745 95.3992 108.426 95.9505 108.346 96.5586C107.859 100.487 105.953 104.102 102.986 106.723C100.02 109.344 96.1971 110.79 92.2385 110.788H79.2834L80.7898 109.282C81.2215 108.848 81.4637 108.26 81.4637 107.648C81.4637 107.036 81.2215 106.448 80.7898 106.014C78.5301 103.746 76.9922 100.859 76.37 97.718C75.7478 94.577 76.0689 91.3221 77.2931 88.3633C78.5173 85.4045 80.5896 82.8742 83.2492 81.091C85.9087 79.3078 89.0365 78.3515 92.2385 78.3426C92.8532 78.3426 93.4427 78.0985 93.8773 77.6638C94.3119 77.2292 94.5561 76.6397 94.5561 76.0251C94.5561 75.4104 94.3119 74.821 93.8773 74.3863C93.4427 73.9517 92.8532 73.7075 92.2385 73.7075C88.3201 73.7239 84.4855 74.8437 81.1741 76.9387C77.8626 79.0336 75.2083 82.019 73.5152 85.5528C71.822 89.0866 71.1586 93.0259 71.6008 96.9193C72.0431 100.813 73.5731 104.503 76.0157 107.567L72.0527 111.46C71.7311 111.786 71.5132 112.2 71.4266 112.65C71.34 113.099 71.3885 113.565 71.566 113.987C71.7398 114.41 72.0351 114.772 72.4145 115.028C72.7939 115.284 73.2406 115.421 73.6981 115.423H92.2385C97.3173 115.424 102.222 113.572 106.032 110.214C109.842 106.856 112.297 102.223 112.934 97.1843C112.977 96.8813 112.959 96.5729 112.881 96.2769C112.804 95.9809 112.669 95.7032 112.483 95.4597C112.298 95.2163 112.066 95.0119 111.802 94.8584C111.537 94.7049 111.245 94.6054 110.941 94.5655ZM107.025 87.7751C106.603 87.5884 106.135 87.5319 105.68 87.6128L105.263 87.7519L104.846 87.9605L104.498 88.2618C104.29 88.4753 104.125 88.7271 104.012 89.0034C103.875 89.2925 103.811 89.6108 103.826 89.9304C103.82 90.2395 103.875 90.5468 103.989 90.8342C104.108 91.1124 104.282 91.3643 104.498 91.5759C104.715 91.7906 104.972 91.9606 105.254 92.0759C105.536 92.1912 105.839 92.2497 106.144 92.2479C106.758 92.2479 107.348 92.0038 107.783 91.5691C108.217 91.1345 108.461 90.545 108.461 89.9304C108.469 89.6264 108.406 89.3248 108.276 89.0497C108.027 88.4928 107.581 88.0473 107.025 87.7982V87.7751Z" fill="white"/>
</svg>
