<svg width="183" height="200" viewBox="0 0 183 200" fill="none" xmlns="http://www.w3.org/2000/svg">
<ellipse opacity="0.1" cx="75.135" cy="87.1895" rx="65.4987" ry="72.34" transform="rotate(-8.18914 75.135 87.1895)" fill="#552580"/>
<ellipse opacity="0.1" cx="97.4323" cy="120.51" rx="65.4987" ry="52.4894" transform="rotate(-109.976 97.4323 120.51)" fill="#552580"/>
<ellipse cx="94.5855" cy="92.0023" rx="65.4987" ry="72.34" transform="rotate(22.6816 94.5855 92.0023)" fill="#552580"/>
<path d="M99.0219 81.4491L98.2322 86.1601C98.1011 86.9509 98.1979 87.7628 98.5114 88.5006C98.8249 89.2384 99.3419 89.8718 100.002 90.3264C100.62 90.7765 101.354 91.039 102.117 91.0825C102.88 91.126 103.64 90.9486 104.305 90.5715L108.172 88.3658L112.093 90.5171C112.746 90.8907 113.492 91.0712 114.245 91.0374C114.997 91.0037 115.724 90.7571 116.341 90.3264C116.982 89.8693 117.482 89.2419 117.785 88.5153C118.089 87.7887 118.183 86.9917 118.056 86.2145L117.267 81.5035L120.535 78.1813C121.074 77.6332 121.452 76.9474 121.628 76.1989C121.804 75.4503 121.77 74.6679 121.531 73.9371C121.292 73.2062 120.857 72.5551 120.273 72.055C119.689 71.5549 118.979 71.2249 118.22 71.1012L113.808 70.4476L111.821 66.2268C111.492 65.5213 110.969 64.9242 110.313 64.5059C109.657 64.0875 108.895 63.8652 108.117 63.8652C107.339 63.8652 106.577 64.0875 105.921 64.5059C105.265 64.9242 104.742 65.5213 104.414 66.2268L102.426 70.4476L98.0143 71.1012C97.2554 71.2249 96.5452 71.5549 95.9612 72.055C95.3772 72.5551 94.9419 73.2062 94.703 73.9371C94.464 74.6679 94.4306 75.4503 94.6064 76.1989C94.7822 76.9474 95.1604 77.6332 95.6997 78.1813L99.0219 81.4491ZM104.005 75.6488C104.673 75.5476 105.305 75.2835 105.847 74.8798C106.388 74.4761 106.822 73.9452 107.11 73.3342L108.172 71.074L109.234 73.3342C109.525 73.9448 109.96 74.4763 110.5 74.8839C111.04 75.2915 111.671 75.5632 112.338 75.676L115.061 76.0573L113.073 78.0724C112.612 78.5501 112.269 79.1285 112.071 79.7619C111.872 80.3952 111.824 81.0661 111.929 81.7214L112.365 84.4445L110.214 83.2736C109.614 82.9397 108.939 82.7645 108.253 82.7645C107.567 82.7645 106.892 82.9397 106.293 83.2736L104.141 84.4445L104.577 81.7214C104.685 81.0703 104.637 80.4029 104.439 79.7736C104.24 79.1443 103.895 78.5707 103.433 78.0996L101.445 76.0573L104.005 75.6488ZM119.064 96.4807C118.342 96.4807 117.649 96.7676 117.139 97.2783C116.628 97.789 116.341 98.4816 116.341 99.2038V107.373C116.341 108.095 116.054 108.788 115.543 109.299C115.033 109.809 114.34 110.096 113.618 110.096H75.4941C74.7719 110.096 74.0792 109.809 73.5685 109.299C73.0579 108.788 72.771 108.095 72.771 107.373V81.2584L88.7829 97.2704C89.5289 98.03 90.4189 98.6332 91.4008 99.0447C92.3827 99.4561 93.4368 99.6676 94.5015 99.6668H95.2367C95.9549 99.6044 96.6191 99.2598 97.0837 98.7085C97.5482 98.1572 97.7751 97.4442 97.7148 96.7258C97.684 96.3676 97.5826 96.0191 97.4165 95.7004C97.2504 95.3816 97.0228 95.0989 96.7468 94.8685C96.4709 94.6381 96.1521 94.4647 95.8088 94.3581C95.4654 94.2516 95.1044 94.2141 94.7466 94.2477C94.3622 94.2872 93.9739 94.239 93.6107 94.107C93.2476 93.9749 92.919 93.7624 92.6498 93.4853L76.6106 77.4188H86.3866C87.1088 77.4188 87.8014 77.1319 88.3121 76.6213C88.8228 76.1106 89.1097 75.4179 89.1097 74.6957C89.1097 73.9735 88.8228 73.2809 88.3121 72.7702C87.8014 72.2595 87.1088 71.9726 86.3866 71.9726H75.4941C73.3274 71.9726 71.2495 72.8333 69.7175 74.3653C68.1854 75.8974 67.3247 77.9753 67.3247 80.142V107.373C67.3247 109.54 68.1854 111.618 69.7175 113.15C71.2495 114.682 73.3274 115.543 75.4941 115.543H113.618C115.784 115.543 117.862 114.682 119.394 113.15C120.926 111.618 121.787 109.54 121.787 107.373V99.2038C121.787 98.4816 121.5 97.789 120.99 97.2783C120.479 96.7676 119.786 96.4807 119.064 96.4807Z" fill="white"/>
</svg>
