<svg width="183" height="200" viewBox="0 0 183 200" fill="none" xmlns="http://www.w3.org/2000/svg">
<ellipse opacity="0.1" cx="75.135" cy="87.1894" rx="65.4987" ry="72.34" transform="rotate(-8.18914 75.135 87.1894)" fill="#FCC11E"/>
<ellipse opacity="0.1" cx="97.4321" cy="120.51" rx="65.4987" ry="52.4894" transform="rotate(-109.976 97.4321 120.51)" fill="#FCC11E"/>
<ellipse cx="94.5855" cy="92.0023" rx="65.4987" ry="72.34" transform="rotate(22.6816 94.5855 92.0023)" fill="#FCC11E"/>
<path d="M72.1337 84.3009C72.7945 84.3009 73.4281 84.0385 73.8954 83.5712C74.3626 83.104 74.6251 82.4703 74.6251 81.8096V74.3355C74.6251 73.6747 74.8876 73.041 75.3548 72.5738C75.822 72.1066 76.4557 71.8441 77.1164 71.8441H84.5905C85.2513 71.8441 85.885 71.5816 86.3522 71.1144C86.8194 70.6472 87.0819 70.0135 87.0819 69.3527C87.0819 68.692 86.8194 68.0583 86.3522 67.5911C85.885 67.1238 85.2513 66.8614 84.5905 66.8614H77.1164C75.1342 66.8614 73.2331 67.6488 71.8314 69.0505C70.4298 70.4521 69.6423 72.3532 69.6423 74.3355V81.8096C69.6423 82.4703 69.9048 83.104 70.372 83.5712C70.8393 84.0385 71.4729 84.3009 72.1337 84.3009ZM84.5905 111.706H77.1164C76.4557 111.706 75.822 111.443 75.3548 110.976C74.8876 110.509 74.6251 109.875 74.6251 109.215V101.741C74.6251 101.08 74.3626 100.446 73.8954 99.9788C73.4281 99.5116 72.7945 99.2491 72.1337 99.2491C71.4729 99.2491 70.8393 99.5116 70.372 99.9788C69.9048 100.446 69.6423 101.08 69.6423 101.741V109.215C69.6423 111.197 70.4298 113.098 71.8314 114.5C73.2331 115.901 75.1342 116.689 77.1164 116.689H84.5905C85.2513 116.689 85.885 116.426 86.3522 115.959C86.8194 115.492 87.0819 114.858 87.0819 114.197C87.0819 113.537 86.8194 112.903 86.3522 112.436C85.885 111.968 85.2513 111.706 84.5905 111.706ZM107.013 94.2664C107.674 94.2664 108.307 94.0039 108.775 93.5367C109.242 93.0695 109.504 92.4358 109.504 91.775C109.504 91.1143 109.242 90.4806 108.775 90.0134C108.307 89.5462 107.674 89.2837 107.013 89.2837H104.173C103.725 87.57 102.829 86.0064 101.577 84.7541C100.325 83.5017 98.7611 82.6057 97.0474 82.1584V79.3182C97.0474 78.6574 96.7849 78.0238 96.3177 77.5565C95.8505 77.0893 95.2168 76.8268 94.556 76.8268C93.8953 76.8268 93.2616 77.0893 92.7943 77.5565C92.3271 78.0238 92.0646 78.6574 92.0646 79.3182V82.1584C90.3509 82.6057 88.7874 83.5017 87.535 84.7541C86.2827 86.0064 85.3867 87.57 84.9393 89.2837H82.0992C81.4384 89.2837 80.8047 89.5462 80.3375 90.0134C79.8703 90.4806 79.6078 91.1143 79.6078 91.775C79.6078 92.4358 79.8703 93.0695 80.3375 93.5367C80.8047 94.0039 81.4384 94.2664 82.0992 94.2664H84.9393C85.3867 95.9801 86.2827 97.5436 87.535 98.796C88.7874 100.048 90.3509 100.944 92.0646 101.392V104.232C92.0646 104.893 92.3271 105.526 92.7943 105.994C93.2616 106.461 93.8953 106.723 94.556 106.723C95.2168 106.723 95.8505 106.461 96.3177 105.994C96.7849 105.526 97.0474 104.893 97.0474 104.232V101.392C98.7611 100.944 100.325 100.048 101.577 98.796C102.829 97.5436 103.725 95.9801 104.173 94.2664H107.013ZM94.556 96.7578C93.5705 96.7578 92.6072 96.4655 91.7878 95.918C90.9683 95.3705 90.3297 94.5923 89.9526 93.6818C89.5754 92.7714 89.4768 91.7695 89.669 90.803C89.8613 89.8364 90.3358 88.9486 91.0327 88.2517C91.7295 87.5549 92.6174 87.0803 93.5839 86.888C94.5505 86.6958 95.5523 86.7945 96.4628 87.1716C97.3733 87.5487 98.1515 88.1874 98.699 89.0068C99.2465 89.8262 99.5387 90.7895 99.5387 91.775C99.5387 93.0965 99.0138 94.3639 98.0793 95.2984C97.1449 96.2328 95.8775 96.7578 94.556 96.7578ZM116.978 99.2491C116.318 99.2491 115.684 99.5116 115.217 99.9788C114.749 100.446 114.487 101.08 114.487 101.741V109.215C114.487 109.875 114.224 110.509 113.757 110.976C113.29 111.443 112.656 111.706 111.996 111.706H104.521C103.861 111.706 103.227 111.968 102.76 112.436C102.293 112.903 102.03 113.537 102.03 114.197C102.03 114.858 102.293 115.492 102.76 115.959C103.227 116.426 103.861 116.689 104.521 116.689H111.996C113.978 116.689 115.879 115.901 117.281 114.5C118.682 113.098 119.47 111.197 119.47 109.215V101.741C119.47 101.08 119.207 100.446 118.74 99.9788C118.273 99.5116 117.639 99.2491 116.978 99.2491ZM111.996 66.8614H104.521C103.861 66.8614 103.227 67.1238 102.76 67.5911C102.293 68.0583 102.03 68.692 102.03 69.3527C102.03 70.0135 102.293 70.6472 102.76 71.1144C103.227 71.5816 103.861 71.8441 104.521 71.8441H111.996C112.656 71.8441 113.29 72.1066 113.757 72.5738C114.224 73.041 114.487 73.6747 114.487 74.3355V81.8096C114.487 82.4703 114.749 83.104 115.217 83.5712C115.684 84.0385 116.318 84.3009 116.978 84.3009C117.639 84.3009 118.273 84.0385 118.74 83.5712C119.207 83.104 119.47 82.4703 119.47 81.8096V74.3355C119.47 72.3532 118.682 70.4521 117.281 69.0505C115.879 67.6488 113.978 66.8614 111.996 66.8614Z" fill="white"/>
</svg>
